<?xml version="1.0" encoding="UTF-8" standalone="no"?>
<!DOCTYPE svg PUBLIC "-//W3C//DTD SVG 1.1//EN" "http://www.w3.org/Graphics/SVG/1.1/DTD/svg11.dtd">
<svg width="100%" height="100%" viewBox="0 0 468 474" version="1.1" xmlns="http://www.w3.org/2000/svg" xmlns:xlink="http://www.w3.org/1999/xlink" xml:space="preserve" style="fill-rule:evenodd;clip-rule:evenodd;stroke-linejoin:round;stroke-miterlimit:1.41421;">
    <g transform="matrix(1,0,0,1,-16,-13)">
        <g id="Add-Friend-Icon" transform="matrix(4.60928,0,0,4.60928,-1829.55,-1507.19)">
            <path d="M457.024,401.423C467.443,400.527 476.717,395.601 483.28,388.214C491.529,393.387 497.859,401.072 501.04,410.108C502.112,413.123 502.082,416.553 500.956,419.539C499.831,422.526 497.544,424.267 495.143,425.758C486.352,431.219 462.82,433.402 442.547,432.26C451.395,426.555 457.258,416.612 457.258,405.311C457.258,403.995 457.179,402.698 457.024,401.423ZM425.215,380.603C438.852,380.603 449.923,391.674 449.923,405.311C449.923,418.947 438.852,430.018 425.215,430.018C411.579,430.018 400.508,418.947 400.508,405.311C400.508,391.674 411.579,380.603 425.215,380.603ZM421.81,408.716L421.81,415.483C421.81,417.362 423.336,418.888 425.215,418.888C427.095,418.888 428.621,417.362 428.621,415.483L428.621,408.716L435.387,408.716C437.267,408.716 438.793,407.19 438.793,405.311C438.793,403.431 437.267,401.905 435.387,401.905L428.621,401.905L428.621,395.138C428.621,393.259 427.095,391.733 425.215,391.733C423.336,391.733 421.81,393.259 421.81,395.138L421.81,401.905L415.043,401.905C413.163,401.905 411.638,403.431 411.638,405.311C411.638,407.19 413.163,408.716 415.043,408.716L421.81,408.716ZM423.753,373.3C422.385,369.744 421.635,365.883 421.635,361.847C421.635,344.217 435.948,329.904 453.578,329.904C471.208,329.904 485.521,344.217 485.521,361.847C485.521,378.965 472.029,392.955 455.108,393.755C450.467,381.773 438.827,373.268 425.215,373.268C424.725,373.268 424.238,373.279 423.753,373.3Z" style="fill:white;"/>
        </g>
    </g>
</svg>
