<?xml version="1.0" encoding="UTF-8" standalone="no"?>
<!DOCTYPE svg PUBLIC "-//W3C//DTD SVG 1.1//EN" "http://www.w3.org/Graphics/SVG/1.1/DTD/svg11.dtd">
<svg width="100%" height="100%" viewBox="0 0 400 474" version="1.1" xmlns="http://www.w3.org/2000/svg" xmlns:xlink="http://www.w3.org/1999/xlink" xml:space="preserve" style="fill-rule:evenodd;clip-rule:evenodd;stroke-linejoin:round;stroke-miterlimit:1.41421;">
    <g transform="matrix(1,0,0,1,-50,-13)">
        <g id="ArrowSimple-Left" transform="matrix(5.05459e-16,-8.25477,6.54964,4.0105e-16,-13364.3,2494.41)">
            <path d="M263.66,2053.77C265.388,2050.31 268.516,2048.2 271.893,2048.2C275.27,2048.2 278.398,2050.31 280.126,2053.77C285.816,2065.15 293.369,2080.26 299.143,2091.8C300.906,2095.33 300.944,2099.71 299.241,2103.28C297.538,2106.85 294.356,2109.06 290.91,2109.06C279.446,2109.06 264.34,2109.06 252.877,2109.06C249.43,2109.06 246.249,2106.85 244.545,2103.28C242.842,2099.71 242.88,2095.33 244.643,2091.8C250.417,2080.26 257.97,2065.15 263.66,2053.77Z" style="fill:white;"/>
        </g>
    </g>
</svg>
