<?xml version="1.0" encoding="UTF-8" standalone="no"?>
<!DOCTYPE svg PUBLIC "-//W3C//DTD SVG 1.1//EN" "http://www.w3.org/Graphics/SVG/1.1/DTD/svg11.dtd">
<svg width="100%" height="100%" viewBox="0 0 463 480" version="1.1" xmlns="http://www.w3.org/2000/svg" xmlns:xlink="http://www.w3.org/1999/xlink" xml:space="preserve" style="fill-rule:evenodd;clip-rule:evenodd;stroke-linejoin:round;stroke-miterlimit:1.41421;">
    <g transform="matrix(1,0,0,1,-22,-7)">
        <g id="Avatar-Icon" transform="matrix(5.48831,0,0,5.33204,-1110.96,-332.14)">
            <g transform="matrix(0.855887,0,0,0.517424,42.6479,-68.6654)">
                <path d="M210.973,386.861C218.252,395.054 228.768,397.674 240.579,397.674C252.389,397.674 263.099,395.054 270.378,386.861C275.572,390.363 280.028,397.787 283.209,406.822C284.281,409.838 284.251,413.268 283.125,416.254C282,419.24 279.713,420.981 277.312,422.473C262.78,431.5 217.829,431.57 204.039,422.473C201.669,420.909 199.352,419.24 198.226,416.254C197.101,413.268 197.071,409.838 198.143,406.822C201.323,397.787 206.109,390.072 210.973,386.861Z" style="fill:white;"/>
            </g>
            <g transform="matrix(1.04346,0,0,0.98307,-838.498,-389.465)">
                <path d="M1042.1,460.912C1067.49,460.748 1082.3,480.034 1082.17,499.158C1082.05,518.282 1063.91,530.07 1041.66,530.213C1019.41,530.357 1001.42,518.803 1001.54,499.678C1001.66,480.554 1016.71,461.076 1042.1,460.912ZM1032.43,508.35C1032.43,508.35 1034.19,515.8 1041.97,515.8C1049.75,515.8 1051.91,507.815 1051.91,507.815C1051.91,507.815 1047.13,510.04 1041.77,510.04C1036.41,510.04 1032.43,508.35 1032.43,508.35ZM1025.76,486.047C1029.8,486.021 1033.06,489.593 1033.03,494.019C1033,498.445 1029.7,502.06 1025.66,502.086C1021.61,502.112 1018.36,498.54 1018.38,494.114C1018.41,489.688 1021.72,486.073 1025.76,486.047ZM1057.49,485.021C1061.53,484.995 1064.79,488.567 1064.76,492.994C1064.73,497.42 1061.43,501.035 1057.38,501.061C1053.34,501.087 1050.08,497.514 1050.11,493.088C1050.14,488.662 1053.44,485.047 1057.49,485.021Z" style="fill:white;"/>
            </g>
        </g>
    </g>
</svg>
