<?xml version="1.0" encoding="UTF-8" standalone="no"?>
<!DOCTYPE svg PUBLIC "-//W3C//DTD SVG 1.1//EN" "http://www.w3.org/Graphics/SVG/1.1/DTD/svg11.dtd">
<svg width="100%" height="100%" viewBox="0 0 426 484" version="1.1" xmlns="http://www.w3.org/2000/svg" xmlns:xlink="http://www.w3.org/1999/xlink" xml:space="preserve" style="fill-rule:evenodd;clip-rule:evenodd;stroke-linejoin:round;stroke-miterlimit:1.41421;">
    <g transform="matrix(1,0,0,1,-36,-7)">
        <g id="Book-Icon" transform="matrix(4.69413,0,0,4.69413,-6346.99,-2229.68)">
            <path d="M1374.67,579.418L1373.92,579.437C1366.2,579.437 1359.93,573.169 1359.93,565.448L1359.93,490.667C1359.93,482.946 1366.2,476.677 1373.92,476.677C1374.46,476.677 1375.01,476.709 1375.54,476.77C1375.96,476.709 1376.39,476.677 1376.83,476.677L1413.77,476.677L1413.77,520.542C1413.77,522.331 1414.57,524.136 1416.09,524.814C1417.79,525.568 1419.81,524.954 1421.22,524.051C1422.62,523.148 1423.89,522.252 1423.89,522.252C1423.89,522.252 1425.14,523.045 1426.9,524.225C1428.67,525.406 1430.64,525.559 1431.75,524.851C1433.18,523.945 1434.13,522.356 1434.13,520.542L1434.13,476.677L1441.49,476.677C1446.45,476.677 1450.47,480.703 1450.47,485.662L1450.47,549.049C1450.47,553.995 1446.47,558.013 1441.49,558.033L1387.91,558.033L1387.91,558.046L1374.12,558.046C1369.57,558.065 1365.91,561.735 1365.91,566.253C1365.91,570.772 1369.57,574.442 1374.12,574.461L1384.61,574.461L1384.61,574.463L1444.58,574.463L1444.58,570.29C1444.58,568.923 1445.69,567.813 1447.05,567.813C1448.42,567.813 1449.53,568.923 1449.53,570.29L1449.53,576.951C1449.53,578.318 1448.42,579.428 1447.05,579.428L1446.83,579.418L1374.67,579.418Z" style="fill:white;"/>
            <clipPath id="_clip1">
                <path d="M1374.67,579.418L1373.92,579.437C1366.2,579.437 1359.93,573.169 1359.93,565.448L1359.93,490.667C1359.93,482.946 1366.2,476.677 1373.92,476.677C1374.46,476.677 1375.01,476.709 1375.54,476.77C1375.96,476.709 1376.39,476.677 1376.83,476.677L1413.77,476.677L1413.77,520.542C1413.77,522.331 1414.57,524.136 1416.09,524.814C1417.79,525.568 1419.81,524.954 1421.22,524.051C1422.62,523.148 1423.89,522.252 1423.89,522.252C1423.89,522.252 1425.14,523.045 1426.9,524.225C1428.67,525.406 1430.64,525.559 1431.75,524.851C1433.18,523.945 1434.13,522.356 1434.13,520.542L1434.13,476.677L1441.49,476.677C1446.45,476.677 1450.47,480.703 1450.47,485.662L1450.47,549.049C1450.47,553.995 1446.47,558.013 1441.49,558.033L1387.91,558.033L1387.91,558.046L1374.12,558.046C1369.57,558.065 1365.91,561.735 1365.91,566.253C1365.91,570.772 1369.57,574.442 1374.12,574.461L1384.61,574.461L1384.61,574.463L1444.58,574.463L1444.58,570.29C1444.58,568.923 1445.69,567.813 1447.05,567.813C1448.42,567.813 1449.53,568.923 1449.53,570.29L1449.53,576.951C1449.53,578.318 1448.42,579.428 1447.05,579.428L1446.83,579.418L1374.67,579.418Z"/>
            </clipPath>
            <g clip-path="url(#_clip1)">
                <g transform="matrix(0.627094,0,0,0.627094,896.432,110.849)">
                    <path d="M762.623,753.585C762.227,753.606 761.828,753.616 761.426,753.616C749.114,753.616 739.118,743.62 739.118,731.308L739.118,605.679C739.118,593.366 749.114,583.37 761.426,583.37C762.3,583.37 763.161,583.42 764.008,583.518C764.683,583.421 765.373,583.37 766.074,583.37L869.177,583.37C877.085,583.37 883.505,589.79 883.505,597.698L883.505,705.157C883.505,713.064 877.085,719.484 869.177,719.484L783.735,719.484L783.735,719.504L761.751,719.504C754.528,719.504 748.663,725.369 748.663,732.592C748.663,739.815 754.528,745.68 761.751,745.68L778.483,745.68L778.479,745.685L874.102,745.685L874.102,739.029C874.102,736.849 875.872,735.079 878.052,735.079C880.232,735.079 882.002,736.849 882.002,739.029L882.002,749.651C882.002,751.831 880.232,753.601 878.052,753.601C877.931,753.601 877.81,753.595 877.692,753.585L762.623,753.585Z" style="fill:white;"/>
                </g>
            </g>
        </g>
    </g>
</svg>
