<?xml version="1.0" encoding="UTF-8" standalone="no"?>
<!DOCTYPE svg PUBLIC "-//W3C//DTD SVG 1.1//EN" "http://www.w3.org/Graphics/SVG/1.1/DTD/svg11.dtd">
<svg width="100%" height="100%" viewBox="0 0 476 378" version="1.1" xmlns="http://www.w3.org/2000/svg" xmlns:xlink="http://www.w3.org/1999/xlink" xml:space="preserve" style="fill-rule:evenodd;clip-rule:evenodd;stroke-linejoin:round;stroke-miterlimit:1.41421;">
    <g transform="matrix(1,0,0,1,-10,-45)">
        <g id="Camera-Icon" transform="matrix(5.67405,0,0,5.67405,-11971.6,-1959.44)">
            <path d="M2143.64,353.424C2145.83,353.424 2147.6,355.201 2147.6,357.389L2147.6,361.311L2190.21,361.311C2193.1,361.311 2195.44,363.626 2195.44,366.478L2195.44,414.694C2195.44,417.545 2193.1,419.861 2190.21,419.861L2117.02,419.861C2114.14,419.861 2111.8,417.545 2111.8,414.694L2111.8,366.478C2111.8,363.626 2114.14,361.311 2117.02,361.311L2120.96,361.311L2120.96,357.389C2120.96,355.201 2122.73,353.424 2124.92,353.424L2143.64,353.424ZM2153.62,368.2C2165.17,368.2 2174.53,377.452 2174.53,388.863C2174.53,400.277 2165.17,409.528 2153.62,409.528C2142.07,409.528 2132.71,400.277 2132.71,388.863C2132.71,377.452 2142.07,368.2 2153.62,368.2ZM2153.62,399.195C2159.39,399.195 2164.07,394.571 2164.07,388.863C2164.07,383.157 2159.39,378.532 2153.62,378.532C2147.84,378.532 2143.16,383.157 2143.16,388.863C2143.16,394.571 2147.84,399.195 2153.62,399.195ZM2183.7,367.536C2181.72,367.536 2180.11,369.122 2180.11,371.076C2180.11,373.03 2181.72,374.617 2183.7,374.617C2185.67,374.617 2187.28,373.03 2187.28,371.076C2187.28,369.122 2185.67,367.536 2183.7,367.536Z" style="fill:white;"/>
        </g>
    </g>
</svg>
