<?xml version="1.0" encoding="UTF-8" standalone="no"?>
<!DOCTYPE svg PUBLIC "-//W3C//DTD SVG 1.1//EN" "http://www.w3.org/Graphics/SVG/1.1/DTD/svg11.dtd">
<svg width="100%" height="100%" viewBox="0 0 472 354" version="1.1" xmlns="http://www.w3.org/2000/svg" xmlns:xlink="http://www.w3.org/1999/xlink" xml:space="preserve" style="fill-rule:evenodd;clip-rule:evenodd;stroke-linejoin:round;stroke-miterlimit:1.41421;">
    <g transform="matrix(1,0,0,1,-14,-73)">
        <g id="Crown-Icon" transform="matrix(6.64824,0,0,6.64824,-5900.74,-4961.75)">
            <path d="M944.537,803.107C944.537,803.107 944.537,807.812 944.537,809.68C944.537,810.096 944.2,810.432 943.784,810.432C938.799,810.432 910.557,810.432 905.571,810.432C905.156,810.432 904.819,810.096 904.819,809.68C904.819,807.812 904.819,803.107 904.819,803.107L944.537,803.107ZM922.589,767.109C921.037,766.204 919.994,764.534 919.994,762.626C919.994,759.756 922.352,757.426 925.257,757.426C928.161,757.426 930.519,759.756 930.519,762.626C930.519,764.625 929.376,766.362 927.7,767.232L937.508,782.625L950.718,776.876C950.297,776.129 950.057,775.269 950.057,774.353C950.057,771.483 952.415,769.153 955.32,769.153C958.224,769.153 960.582,771.483 960.582,774.353C960.582,777.223 958.224,779.554 955.32,779.554C954.531,779.554 953.782,779.382 953.11,779.074L944.71,800.074L904.936,800.074L897.158,779.104C896.503,779.393 895.778,779.554 895.015,779.554C892.111,779.554 889.753,777.223 889.753,774.353C889.753,771.483 892.111,769.153 895.015,769.153C897.92,769.153 900.278,771.483 900.278,774.353C900.278,775.155 900.094,775.915 899.765,776.594L913.393,782.574L922.589,767.109Z" style="fill:white;"/>
        </g>
    </g>
</svg>
