<?xml version="1.0" encoding="UTF-8" standalone="no"?>
<!DOCTYPE svg PUBLIC "-//W3C//DTD SVG 1.1//EN" "http://www.w3.org/Graphics/SVG/1.1/DTD/svg11.dtd">
<svg width="100%" height="100%" viewBox="0 0 466 436" version="1.1" xmlns="http://www.w3.org/2000/svg" xmlns:xlink="http://www.w3.org/1999/xlink" xml:space="preserve" style="fill-rule:evenodd;clip-rule:evenodd;stroke-linejoin:round;stroke-miterlimit:1.41421;">
    <g transform="matrix(1,0,0,1,-17,-32)">
        <g id="Friend-Icon" transform="matrix(4.21434,0,0,4.01225,-2338.91,-1289.46)">
            <path d="M574.081,393.77C581.249,401.746 591.215,406.396 601.895,405.654C612.575,404.913 621.803,398.929 627.799,390.04C635.628,394.846 641.901,402.359 645.424,411.46C646.609,414.497 646.826,418.029 646.022,421.174C645.218,424.318 643.275,426.254 641.21,427.94C628.714,438.144 579.158,441.659 566.038,433.161C563.783,431.7 561.568,430.128 560.337,427.125C559.106,424.121 558.833,420.593 559.587,417.422C561.817,407.921 566.992,399.613 574.081,393.77ZM640.995,390.844C647.35,390.128 653.302,387.456 658.177,383.333C664.068,388.851 668.052,396.238 669.307,404.34C669.734,407.045 669.215,409.95 667.878,412.33C666.541,414.71 664.45,415.873 662.302,416.81C660.577,417.562 658.304,418.083 655.636,418.399C655.676,416.123 655.275,413.821 654.448,411.734C651.808,405.022 646.671,396.97 640.995,390.844ZM596.772,331.885C612.714,330.778 626.68,344.612 627.941,362.759C629.201,380.906 617.281,396.538 601.339,397.646C585.397,398.753 571.43,384.919 570.17,366.771C568.91,348.624 580.83,332.992 596.772,331.885ZM623.171,334.644C628.659,330.53 635.602,328.588 642.696,329.795C656.883,332.21 666.334,346.314 663.788,361.271C661.242,376.228 647.658,386.411 633.471,383.997C633.303,383.968 633.136,383.938 632.969,383.905L632.894,383.857C640.02,362.352 633.425,344.903 623.171,334.644Z" style="fill:white;"/>
        </g>
    </g>
</svg>
