<?xml version="1.0" encoding="UTF-8" standalone="no"?>
<!DOCTYPE svg PUBLIC "-//W3C//DTD SVG 1.1//EN" "http://www.w3.org/Graphics/SVG/1.1/DTD/svg11.dtd">
<svg width="100%" height="100%" viewBox="0 0 472 493" version="1.1" xmlns="http://www.w3.org/2000/svg" xmlns:xlink="http://www.w3.org/1999/xlink" xml:space="preserve" style="fill-rule:evenodd;clip-rule:evenodd;stroke-linecap:round;stroke-linejoin:round;stroke-miterlimit:1.5;">
    <g transform="matrix(1,0,0,1,-14,5)">
        <g id="Gift-Icon" transform="matrix(4.91282,0,0,4.97178,-9609.37,-2648.31)">
            <path d="M2001.1,630.738L1970.06,630.738C1966.43,630.738 1963.49,627.793 1963.49,624.166L1963.49,589.03L2001.1,589.03L2001.1,630.738ZM2043.67,630.738L2012.63,630.738L2012.63,589.03L2050.25,589.03L2050.25,624.166C2050.25,627.793 2047.3,630.738 2043.67,630.738ZM2001.1,583.455L1958.89,583.455L1958.89,570.984C1958.89,568.101 1961.23,565.761 1964.11,565.761L2001.1,565.761L2001.1,583.455ZM2054.84,583.455L2012.63,583.455L2012.63,565.761L2049.62,565.761C2052.5,565.761 2054.84,568.101 2054.84,570.984L2054.84,583.455Z" style="fill:white;"/>
            <g transform="matrix(1.28709,0,0,1.09392,-572.427,-43.1714)">
                <path d="M2002.48,549.738C1989.76,553.691 1967.28,548.93 1972.43,535.05C1978.64,518.35 2003.28,538.519 2002.48,549.738Z" style="fill:none;stroke:white;stroke-width:5.65px;"/>
                <g transform="matrix(-1,0,0,1,4007.96,0)">
                    <path d="M2002.48,549.738C1989.76,553.691 1967.28,548.93 1972.43,535.05C1978.64,518.35 2003.28,538.519 2002.48,549.738Z" style="fill:none;stroke:white;stroke-width:5.65px;"/>
                </g>
            </g>
        </g>
    </g>
</svg>
