<?xml version="1.0" encoding="UTF-8" standalone="no"?>
<!DOCTYPE svg PUBLIC "-//W3C//DTD SVG 1.1//EN" "http://www.w3.org/Graphics/SVG/1.1/DTD/svg11.dtd">
<svg width="100%" height="100%" viewBox="0 0 330 475" version="1.1" xmlns="http://www.w3.org/2000/svg" xmlns:xlink="http://www.w3.org/1999/xlink" xml:space="preserve" style="fill-rule:evenodd;clip-rule:evenodd;stroke-linejoin:round;stroke-miterlimit:1.41421;">
    <g transform="matrix(1,0,0,1,-90,-13)">
        <g id="Gingerbread-Icon" transform="matrix(4.07233,0,0,4.07233,-3987.8,-1863.57)">
            <path d="M1041.74,535.69C1048.43,535.7 1055.68,534.786 1062.6,532.315C1066.59,530.89 1070.06,530.843 1071.69,534.132C1073.31,537.421 1071.55,541.065 1067.82,542.446C1064.1,543.826 1059.35,544.884 1056.39,546.423C1051.4,549.011 1056.05,555.24 1056.41,555.814C1058.36,558.953 1062.31,563.256 1064.3,566.464C1066.29,569.672 1066.12,574.478 1062.39,576.565C1058.67,578.651 1055.03,576.695 1052.05,573.551C1049.4,570.748 1044.91,566.331 1043.67,565.041C1042.54,563.871 1040.9,563.883 1039.8,565.041C1038.23,566.701 1034.53,570.232 1031.42,573.551C1028.45,576.712 1024.8,578.651 1021.07,576.565C1017.35,574.478 1017.18,569.672 1019.17,566.464C1021.16,563.256 1025.11,558.953 1027.06,555.814C1027.42,555.24 1032.06,549.011 1027.08,546.423C1024.12,544.884 1019.37,543.826 1015.65,542.446C1011.92,541.065 1010.16,537.421 1011.78,534.132C1013.41,530.843 1016.88,530.89 1020.87,532.315C1027.79,534.786 1035.04,535.7 1041.74,535.69ZM1041.74,552.661C1040.26,552.725 1039.08,553.944 1039.08,555.436C1039.08,556.928 1040.26,558.147 1041.74,558.211C1043.21,558.147 1044.39,556.928 1044.39,555.436C1044.39,553.944 1043.21,552.725 1041.74,552.661ZM1041.74,540.104C1040.26,540.168 1039.08,541.387 1039.08,542.879C1039.08,544.372 1040.26,545.59 1041.74,545.654C1043.21,545.59 1044.39,544.372 1044.39,542.879C1044.39,541.387 1043.21,540.168 1041.74,540.104ZM1042.1,460.912C1067.49,460.748 1082.3,480.034 1082.17,499.158C1082.05,518.282 1063.91,530.07 1041.66,530.213C1019.41,530.357 1001.42,518.803 1001.54,499.678C1001.66,480.554 1016.71,461.076 1042.1,460.912ZM1032.43,508.35C1032.43,508.35 1034.19,515.8 1041.97,515.8C1049.75,515.8 1051.91,507.815 1051.91,507.815C1051.91,507.815 1047.13,510.04 1041.77,510.04C1036.41,510.04 1032.43,508.35 1032.43,508.35ZM1025.76,486.047C1029.8,486.021 1033.06,489.593 1033.03,494.019C1033,498.445 1029.7,502.06 1025.66,502.086C1021.61,502.112 1018.36,498.54 1018.38,494.114C1018.41,489.688 1021.72,486.073 1025.76,486.047ZM1057.49,485.021C1061.53,484.995 1064.79,488.567 1064.76,492.994C1064.73,497.42 1061.43,501.035 1057.38,501.061C1053.34,501.087 1050.08,497.514 1050.11,493.088C1050.14,488.662 1053.44,485.047 1057.49,485.021Z" style="fill:white;"/>
        </g>
    </g>
</svg>
