<?xml version="1.0" encoding="UTF-8" standalone="no"?>
<!DOCTYPE svg PUBLIC "-//W3C//DTD SVG 1.1//EN" "http://www.w3.org/Graphics/SVG/1.1/DTD/svg11.dtd">
<svg width="100%" height="100%" viewBox="0 0 370 502" version="1.1" xmlns="http://www.w3.org/2000/svg" xmlns:xlink="http://www.w3.org/1999/xlink" xml:space="preserve" style="fill-rule:evenodd;clip-rule:evenodd;stroke-linejoin:round;stroke-miterlimit:1.41421;">
    <g transform="matrix(1,0,0,1,-65,16)">
        <g id="Help-Icon" transform="matrix(5.48786,0,0,5.48786,-5567.84,-2935.43)">
            <g transform="matrix(1,0,0,1,-0.313477,0.933594)">
                <path d="M1060.59,537.211L1060.74,537.212L1060.88,537.213L1061.02,537.215L1061.16,537.217L1061.3,537.22L1061.44,537.224L1061.59,537.228L1061.73,537.233L1061.87,537.238L1062.01,537.244L1062.15,537.25L1062.29,537.257L1062.44,537.264L1062.58,537.273L1062.72,537.281L1062.86,537.29L1063,537.3L1063.14,537.311L1063.28,537.322L1063.42,537.333L1063.57,537.345L1063.71,537.358L1063.85,537.371L1063.99,537.385L1064.13,537.399L1064.27,537.414L1064.41,537.43L1064.55,537.446L1064.69,537.463L1064.83,537.48L1064.97,537.498L1065.11,537.516L1065.25,537.535L1065.39,537.555L1065.53,537.575L1065.67,537.595L1065.81,537.617L1065.95,537.639L1066.09,537.661L1066.23,537.684L1066.37,537.708L1066.51,537.732L1066.65,537.757L1066.79,537.782L1066.93,537.808L1067.07,537.834L1067.2,537.861L1067.34,537.889L1067.48,537.917L1067.62,537.946L1067.76,537.975L1067.89,538.005L1068.03,538.036L1068.17,538.067L1068.31,538.099L1068.45,538.131L1068.58,538.164L1068.72,538.198L1068.86,538.232L1069,538.266L1069.13,538.302L1069.27,538.338L1069.4,538.374L1069.54,538.411L1069.68,538.449L1069.81,538.487L1069.95,538.526L1070.09,538.566L1070.22,538.606L1070.36,538.646L1070.49,538.688L1070.63,538.73L1070.76,538.772L1070.9,538.815L1071.03,538.859L1071.16,538.903L1071.3,538.948L1071.43,538.994L1071.57,539.04L1071.7,539.087L1071.83,539.134L1071.97,539.182L1072.1,539.231L1072.23,539.28L1072.37,539.33L1072.5,539.381L1072.63,539.432L1072.76,539.484L1072.89,539.536L1073.02,539.589L1073.15,539.643L1073.29,539.698L1073.42,539.753L1073.55,539.808L1073.68,539.865L1073.81,539.922L1073.94,539.979L1074.07,540.037L1074.2,540.096L1074.33,540.156L1074.45,540.216L1074.58,540.277L1074.71,540.339L1074.84,540.401L1074.97,540.464L1075.1,540.527L1075.22,540.592L1075.35,540.656L1075.48,540.722L1075.6,540.788L1075.73,540.855L1075.85,540.923L1075.98,540.991L1076.11,541.06L1076.22,541.127L1076.29,541.165L1076.35,541.2L1076.42,541.236L1076.48,541.271L1076.54,541.307L1076.6,541.343L1076.66,541.379L1076.73,541.416L1076.79,541.452L1076.85,541.489L1076.91,541.526L1076.97,541.563L1077.03,541.6L1077.1,541.637L1077.16,541.675L1077.22,541.713L1077.28,541.751L1077.34,541.789L1077.4,541.827L1077.46,541.866L1077.52,541.904L1077.58,541.943L1077.64,541.982L1077.7,542.021L1077.76,542.06L1077.82,542.1L1077.88,542.14L1077.94,542.18L1078,542.22L1078.06,542.26L1078.12,542.3L1078.18,542.341L1078.24,542.382L1078.3,542.423L1078.36,542.464L1078.42,542.506L1078.48,542.547L1078.54,542.589L1078.6,542.631L1078.66,542.673L1078.71,542.715L1078.77,542.758L1078.83,542.8L1078.89,542.843L1078.95,542.886L1079.01,542.929L1079.07,542.973L1079.12,543.017L1079.18,543.06L1079.24,543.104L1079.3,543.149L1079.35,543.193L1079.41,543.237L1079.47,543.282L1079.53,543.327L1079.58,543.372L1079.64,543.418L1079.7,543.463L1079.75,543.509L1079.81,543.555L1079.87,543.601L1079.92,543.647L1079.98,543.693L1080.04,543.74L1080.09,543.787L1080.15,543.834L1080.2,543.881L1080.26,543.929L1080.32,543.976L1080.37,544.024L1080.43,544.072L1080.48,544.12L1080.54,544.169L1080.59,544.217L1080.65,544.266L1080.7,544.315L1080.76,544.364L1080.81,544.414L1080.86,544.463L1080.92,544.513L1080.97,544.563L1081.03,544.613L1081.08,544.664L1081.13,544.714L1081.19,544.765L1081.24,544.816L1081.29,544.867L1081.35,544.918L1081.4,544.97L1081.45,545.022L1081.51,545.074L1081.56,545.126L1081.61,545.178L1081.66,545.231L1081.71,545.283L1081.77,545.336L1081.82,545.389L1081.87,545.443L1081.92,545.496L1081.97,545.55L1082.02,545.604L1082.08,545.658L1082.13,545.713L1082.18,545.767L1082.23,545.822L1082.28,545.877L1082.33,545.932L1082.38,545.987L1082.43,546.043L1082.48,546.098L1082.53,546.154L1082.58,546.211L1082.63,546.267L1082.68,546.323L1082.72,546.38L1082.77,546.437L1082.82,546.494L1082.87,546.551L1082.92,546.609L1082.97,546.667L1083.02,546.725L1083.06,546.783L1083.11,546.841L1083.16,546.9L1083.2,546.959L1083.25,547.017L1083.3,547.076L1083.35,547.136L1083.39,547.195L1083.44,547.255L1083.49,547.315L1083.53,547.375L1083.58,547.435L1083.62,547.496L1083.67,547.557L1083.71,547.618L1083.76,547.679L1083.8,547.74L1083.85,547.802L1083.89,547.863L1083.94,547.925L1083.98,547.988L1084.02,548.05L1084.07,548.112L1084.11,548.175L1084.15,548.238L1084.2,548.301L1084.24,548.364L1084.28,548.427L1084.33,548.491L1084.37,548.555L1084.41,548.619L1084.45,548.684L1084.49,548.748L1084.53,548.812L1084.58,548.877L1084.62,548.942L1084.66,549.008L1084.7,549.073L1084.74,549.139L1084.78,549.204L1084.82,549.27L1084.86,549.337L1084.9,549.403L1084.93,549.469L1084.97,549.536L1085.01,549.603L1085.05,549.67L1085.09,549.738L1085.13,549.805L1085.16,549.873L1085.2,549.941L1085.24,550.009L1085.28,550.077L1085.31,550.145L1085.35,550.214L1085.39,550.283L1085.42,550.351L1085.46,550.421L1085.5,550.49L1085.53,550.559L1085.57,550.629L1085.6,550.698L1085.63,550.769L1085.67,550.839L1085.7,550.909L1085.74,550.98L1085.77,551.05L1085.8,551.121L1085.84,551.192L1085.87,551.264L1085.9,551.335L1085.93,551.407L1085.97,551.478L1086,551.55L1086.03,551.622L1086.06,551.694L1086.09,551.767L1086.12,551.84L1086.15,551.912L1086.18,551.985L1086.21,552.058L1086.25,552.131L1086.27,552.204L1086.3,552.278L1086.33,552.352L1086.36,552.425L1086.39,552.499L1086.42,552.574L1086.44,552.648L1086.47,552.722L1086.5,552.797L1086.53,552.871L1086.55,552.947L1086.58,553.022L1086.61,553.097L1086.63,553.172L1086.66,553.248L1086.68,553.323L1086.71,553.399L1086.73,553.475L1086.76,553.551L1086.78,553.627L1086.81,553.704L1086.83,553.78L1086.85,553.857L1086.88,553.933L1086.9,554.01L1086.92,554.087L1086.94,554.164L1086.96,554.242L1086.99,554.319L1087.01,554.396L1087.03,554.474L1087.05,554.552L1087.07,554.63L1087.09,554.708L1087.11,554.786L1087.13,554.864L1087.15,554.943L1087.17,555.021L1087.19,555.1L1087.2,555.179L1087.22,555.258L1087.24,555.336L1087.26,555.416L1087.28,555.495L1087.29,555.574L1087.31,555.654L1087.32,555.73L1087.34,555.814L1087.36,555.896L1087.37,555.976L1087.39,556.057L1087.4,556.139L1087.42,556.219L1087.43,556.3L1087.45,556.38L1087.46,556.461L1087.48,556.542L1087.49,556.622L1087.51,556.702L1087.52,556.782L1087.54,556.862L1087.55,556.942L1087.56,557.022L1087.58,557.102L1087.59,557.182L1087.6,557.262L1087.62,557.342L1087.63,557.421L1087.64,557.5L1087.65,557.58L1087.66,557.659L1087.67,557.738L1087.69,557.818L1087.7,557.897L1087.71,557.976L1087.72,558.055L1087.73,558.134L1087.74,558.212L1087.75,558.291L1087.76,558.37L1087.77,558.448L1087.78,558.527L1087.79,558.605L1087.8,558.683L1087.81,558.762L1087.82,558.84L1087.83,558.918L1087.84,558.996L1087.84,559.074L1087.85,559.152L1087.86,559.229L1087.87,559.307L1087.88,559.385L1087.88,559.462L1087.89,559.54L1087.9,559.617L1087.9,559.695L1087.91,559.771L1087.92,559.849L1087.92,559.926L1087.93,560.003L1087.94,560.08L1087.94,560.157L1087.95,560.233L1087.95,560.31L1087.96,560.387L1087.96,560.463L1087.97,560.54L1087.97,560.616L1087.97,560.693L1087.98,560.769L1087.98,560.845L1087.99,560.921L1087.99,560.997L1087.99,561.073L1088,561.149L1088,561.225L1088,561.301L1088.01,561.376L1088.01,561.452L1088.01,561.527L1088.01,561.603L1088.01,561.678L1088.01,561.754L1088.02,561.829L1088.02,561.904L1088.02,561.979L1088.02,562.054L1088.02,562.129L1088.02,562.204L1088.02,562.278L1088.02,562.353L1088.02,562.428L1088.02,562.502L1088.02,562.577L1088.02,562.651L1088.02,562.725L1088.02,562.8L1088.01,562.874L1088.01,562.947L1088.01,563.022L1088.01,563.096L1088.01,563.169L1088,563.243L1088,563.317L1088,563.391L1087.99,563.464L1087.99,563.537L1087.99,563.611L1087.98,563.684L1087.98,563.757L1087.98,563.83L1087.97,563.903L1087.97,563.976L1087.96,564.049L1087.96,564.122L1087.95,564.195L1087.95,564.267L1087.94,564.34L1087.94,564.412L1087.93,564.485L1087.92,564.557L1087.92,564.629L1087.91,564.702L1087.91,564.773L1087.9,564.846L1087.89,564.917L1087.88,564.989L1087.88,565.061L1087.87,565.133L1087.86,565.204L1087.85,565.275L1087.85,565.347L1087.84,565.418L1087.83,565.489L1087.82,565.56L1087.81,565.631L1087.8,565.703L1087.79,565.773L1087.78,565.844L1087.77,565.915L1087.76,565.985L1087.75,566.056L1087.74,566.126L1087.73,566.196L1087.72,566.267L1087.71,566.337L1087.7,566.407L1087.69,566.477L1087.68,566.546L1087.66,566.616L1087.65,566.686L1087.64,566.756L1087.63,566.825L1087.62,566.894L1087.6,566.964L1087.59,567.033L1087.58,567.102L1087.56,567.17L1087.55,567.239L1087.54,567.309L1087.52,567.377L1087.51,567.445L1087.49,567.514L1087.48,567.583L1087.46,567.651L1087.45,567.719L1087.43,567.787L1087.42,567.855L1087.4,567.923L1087.39,567.99L1087.37,568.058L1087.36,568.126L1087.34,568.193L1087.32,568.26L1087.31,568.327L1087.29,568.395L1087.27,568.462L1087.26,568.529L1087.24,568.595L1087.22,568.662L1087.2,568.728L1087.18,568.795L1087.17,568.861L1087.15,568.927L1087.13,568.993L1087.11,569.06L1087.09,569.126L1087.07,569.191L1087.06,569.257L1087.04,569.322L1087.02,569.388L1087,569.453L1086.98,569.519L1086.96,569.583L1086.94,569.648L1086.92,569.713L1086.89,569.778L1086.87,569.842L1086.85,569.907L1086.83,569.977L1086.79,570.099L1086.75,570.227L1086.7,570.355L1086.66,570.482L1086.61,570.608L1086.57,570.734L1086.52,570.859L1086.47,570.984L1086.42,571.108L1086.37,571.232L1086.32,571.355L1086.27,571.478L1086.22,571.6L1086.17,571.722L1086.12,571.843L1086.07,571.963L1086.01,572.083L1085.96,572.203L1085.9,572.322L1085.85,572.44L1085.79,572.557L1085.74,572.675L1085.68,572.791L1085.62,572.907L1085.56,573.023L1085.51,573.138L1085.45,573.252L1085.39,573.366L1085.33,573.479L1085.27,573.591L1085.2,573.703L1085.14,573.815L1085.08,573.926L1085.02,574.036L1084.95,574.145L1084.89,574.254L1084.83,574.363L1084.76,574.471L1084.7,574.578L1084.63,574.685L1084.57,574.791L1084.5,574.896L1084.43,575.001L1084.36,575.105L1084.3,575.209L1084.23,575.312L1084.16,575.414L1084.09,575.516L1084.02,575.617L1083.95,575.718L1083.88,575.818L1083.81,575.918L1083.74,576.016L1083.67,576.115L1083.6,576.213L1083.53,576.309L1083.45,576.406L1083.38,576.502L1083.31,576.597L1083.24,576.692L1083.16,576.786L1083.09,576.88L1083.02,576.972L1082.94,577.065L1082.87,577.157L1082.79,577.248L1082.72,577.339L1082.64,577.429L1082.57,577.518L1082.49,577.607L1082.42,577.695L1082.34,577.783L1082.26,577.87L1082.19,577.957L1082.11,578.043L1082.03,578.129L1081.96,578.214L1081.88,578.298L1081.8,578.382L1081.72,578.466L1081.65,578.548L1081.57,578.631L1081.49,578.713L1081.41,578.794L1081.33,578.874L1081.26,578.955L1081.18,579.034L1081.1,579.114L1081.02,579.192L1080.94,579.27L1080.86,579.348L1080.78,579.425L1080.7,579.502L1080.62,579.578L1080.54,579.654L1080.46,579.729L1080.38,579.804L1080.31,579.878L1080.23,579.952L1080.15,580.025L1080.07,580.098L1079.99,580.17L1079.91,580.242L1079.83,580.314L1079.75,580.384L1079.67,580.455L1079.59,580.525L1079.51,580.595L1079.43,580.664L1079.35,580.733L1079.27,580.801L1079.19,580.869L1079.11,580.936L1079.03,581.004L1078.95,581.07L1078.87,581.136L1078.79,581.202L1078.71,581.268L1078.63,581.333L1078.55,581.397L1078.47,581.462L1078.39,581.526L1078.31,581.589L1078.23,581.652L1078.15,581.715L1078.07,581.777L1077.99,581.839L1077.91,581.901L1077.83,581.962L1077.75,582.023L1077.67,582.084L1077.59,582.144L1077.51,582.204L1077.43,582.263L1077.35,582.322L1077.27,582.381L1077.19,582.44L1077.12,582.498L1077.04,582.556L1076.96,582.613L1076.88,582.67L1076.8,582.727L1076.72,582.784L1076.64,582.84L1076.57,582.896L1076.49,582.951L1076.41,583.007L1076.33,583.062L1076.26,583.116L1076.18,583.171L1076.1,583.227L1075.95,583.332L1075.79,583.439L1075.64,583.544L1075.49,583.648L1075.34,583.751L1075.18,583.853L1075.03,583.954L1074.88,584.054L1074.73,584.153L1074.59,584.251L1074.44,584.348L1074.29,584.445L1074.14,584.54L1074,584.635L1073.86,584.728L1073.71,584.821L1073.57,584.913L1073.43,585.005L1073.15,585.184L1072.87,585.362L1072.6,585.536L1072.33,585.707L1072.07,585.876L1071.81,586.043L1071.68,586.124L1071.56,586.206L1071.43,586.287L1071.31,586.367L1071.19,586.446L1071.07,586.525L1070.95,586.604L1070.83,586.681L1070.71,586.758L1070.6,586.835L1070.48,586.911L1070.37,586.986L1070.26,587.061L1070.15,587.135L1070.05,587.209L1069.94,587.282L1069.83,587.356L1069.79,587.39L1069.73,587.426L1069.68,587.461L1069.63,587.497L1069.58,587.532L1069.53,587.568L1069.49,587.602L1069.44,587.637L1069.39,587.672L1069.34,587.707L1069.3,587.741L1069.25,587.775L1069.2,587.809L1069.16,587.843L1069.11,587.877L1069.07,587.91L1069.02,587.944L1068.98,587.977L1068.93,588.01L1068.89,588.043L1068.85,588.076L1068.81,588.108L1068.77,588.141L1068.72,588.173L1068.68,588.205L1068.64,588.237L1068.6,588.268L1068.57,588.3L1068.53,588.331L1068.49,588.362L1068.45,588.393L1068.41,588.423L1068.38,588.454L1068.34,588.484L1068.3,588.514L1068.27,588.544L1068.24,588.574L1068.2,588.603L1068.17,588.632L1068.13,588.661L1068.1,588.69L1068.07,588.718L1068.04,588.747L1068.01,588.775L1067.97,588.803L1067.94,588.83L1067.91,588.858L1067.88,588.885L1067.86,588.912L1067.83,588.938L1067.8,588.965L1067.77,588.991L1067.75,589.017L1067.72,589.043L1067.69,589.068L1067.67,589.093L1067.64,589.118L1067.62,589.143L1067.6,589.167L1067.57,589.191L1067.55,589.215L1067.53,589.238L1067.51,589.262L1067.49,589.285L1067.46,589.308L1067.44,589.33L1067.42,589.352L1067.4,589.374L1067.38,589.395L1067.37,589.416L1067.35,589.438L1067.33,589.458L1067.31,589.478L1067.3,589.499L1067.28,589.518L1067.27,589.538L1067.25,589.557L1067.23,589.576L1067.22,589.594L1067.21,589.612L1067.19,589.63L1067.18,589.648L1067.16,589.665L1067.15,589.682L1067.14,589.699L1067.13,589.715L1067.12,589.732L1067.11,589.747L1067.1,589.763L1067.09,589.778L1067.08,589.793L1067.07,589.808L1067.06,589.822L1067.05,589.836L1067.04,589.85L1067.03,589.863L1067.02,589.876L1067.01,589.889L1067.01,589.902L1067,589.914L1066.99,589.926L1066.99,589.938L1066.98,589.95L1066.97,589.961L1066.97,589.972L1066.96,589.983L1066.96,589.994L1066.95,590.005L1066.94,590.015L1066.94,590.025L1066.93,590.035L1066.93,590.045L1066.93,590.054L1066.92,590.064L1066.92,590.073L1066.91,590.082L1066.91,590.091L1066.91,590.1L1066.9,590.109L1066.9,590.118L1066.9,590.127L1066.89,590.135L1066.89,590.144L1066.89,590.152L1066.88,590.161L1066.88,590.169L1066.88,590.178L1066.87,590.192L1066.87,590.195L1066.87,590.199L1066.87,590.204L1066.87,590.208L1066.87,590.212L1066.87,590.217L1066.86,590.221L1066.86,590.225L1066.86,590.23L1066.86,590.234L1066.86,590.239L1066.86,590.244L1066.86,590.248L1066.86,590.253L1066.85,590.257L1066.85,590.262L1066.85,590.267L1066.85,590.272L1066.85,590.276L1066.85,590.281L1066.85,590.286L1066.85,590.291L1066.84,590.296L1066.84,590.301L1066.84,590.306L1066.84,590.311L1066.84,590.317L1066.84,590.322L1066.84,590.327L1066.84,590.333L1066.84,590.338L1066.84,590.344L1066.83,590.35L1066.83,590.355L1066.83,590.361L1066.83,590.367L1066.83,590.373L1066.83,590.379L1066.83,590.385L1066.83,590.392L1066.83,590.398L1066.83,590.404L1066.82,590.411L1066.82,590.417L1066.82,590.424L1066.82,590.431L1066.82,590.438L1066.82,590.445L1066.82,590.452L1066.82,590.459L1066.82,590.467L1066.82,590.474L1066.82,590.481L1066.82,590.489L1066.81,590.497L1066.81,590.505L1066.81,590.513L1066.81,590.521L1066.81,590.53L1066.81,590.538L1066.81,590.546L1066.81,590.555L1066.81,590.564L1066.81,590.573L1066.81,590.582L1066.81,590.591L1066.81,590.6L1066.81,590.61L1066.81,590.62L1066.81,590.629L1066.81,590.639L1066.81,590.649L1066.81,590.659L1066.81,590.67L1066.81,590.68L1066.81,590.691L1066.81,590.702L1066.81,590.713L1066.81,590.724L1066.81,590.758L1066.81,590.784L1066.74,591.902L1066.5,592.999L1066.11,594.048L1065.56,595.026L1064.87,595.912L1064.06,596.685L1063.14,597.329L1062.14,597.83L1061.08,598.175L1059.97,598.357L1058.85,598.372L1057.74,598.22L1056.66,597.905L1055.64,597.432L1054.71,596.813L1053.88,596.062L1053.17,595.196L1052.59,594.233L1052.17,593.195L1051.91,592.105L1051.81,590.989L1051.81,590.936L1051.81,590.869L1051.81,590.802L1051.81,590.734L1051.81,590.667L1051.81,590.6L1051.81,590.534L1051.81,590.467L1051.81,590.4L1051.81,590.333L1051.81,590.266L1051.81,590.199L1051.81,590.132L1051.82,590.066L1051.82,589.999L1051.82,589.933L1051.83,589.866L1051.83,589.799L1051.83,589.733L1051.84,589.666L1051.84,589.6L1051.84,589.533L1051.85,589.467L1051.85,589.4L1051.86,589.334L1051.86,589.268L1051.87,589.202L1051.88,589.135L1051.88,589.069L1051.89,589.003L1051.89,588.937L1051.9,588.871L1051.91,588.805L1051.92,588.739L1051.92,588.674L1051.93,588.608L1051.94,588.542L1051.95,588.477L1051.96,588.411L1051.97,588.346L1051.98,588.28L1051.99,588.214L1052,588.149L1052.01,588.084L1052.02,588.019L1052.03,587.954L1052.04,587.889L1052.05,587.824L1052.06,587.759L1052.07,587.694L1052.08,587.629L1052.09,587.565L1052.11,587.501L1052.12,587.436L1052.13,587.372L1052.14,587.307L1052.16,587.243L1052.17,587.179L1052.19,587.115L1052.2,587.051L1052.21,586.987L1052.23,586.924L1052.24,586.861L1052.26,586.797L1052.27,586.733L1052.29,586.67L1052.31,586.607L1052.32,586.544L1052.34,586.481L1052.35,586.418L1052.37,586.355L1052.39,586.293L1052.4,586.23L1052.42,586.168L1052.44,586.106L1052.46,586.043L1052.47,585.981L1052.49,585.92L1052.51,585.858L1052.53,585.796L1052.55,585.735L1052.57,585.674L1052.59,585.612L1052.61,585.544L1052.65,585.429L1052.69,585.308L1052.73,585.187L1052.77,585.067L1052.82,584.947L1052.86,584.828L1052.91,584.71L1052.95,584.592L1053,584.475L1053.05,584.358L1053.1,584.242L1053.15,584.127L1053.2,584.013L1053.25,583.898L1053.3,583.785L1053.35,583.673L1053.4,583.56L1053.46,583.449L1053.51,583.339L1053.57,583.229L1053.62,583.12L1053.68,583.011L1053.74,582.903L1053.8,582.796L1053.85,582.689L1053.91,582.584L1053.97,582.479L1054.03,582.375L1054.09,582.271L1054.15,582.169L1054.21,582.067L1054.28,581.965L1054.34,581.864L1054.4,581.765L1054.47,581.666L1054.53,581.567L1054.6,581.47L1054.66,581.372L1054.73,581.276L1054.79,581.181L1054.86,581.086L1054.93,580.992L1054.99,580.899L1055.06,580.806L1055.13,580.714L1055.2,580.623L1055.27,580.533L1055.34,580.443L1055.4,580.354L1055.47,580.265L1055.54,580.178L1055.61,580.091L1055.68,580.004L1055.75,579.919L1055.83,579.834L1055.9,579.749L1055.97,579.666L1056.04,579.583L1056.11,579.501L1056.18,579.419L1056.26,579.338L1056.33,579.258L1056.4,579.178L1056.47,579.099L1056.55,579.02L1056.62,578.942L1056.69,578.865L1056.77,578.788L1056.84,578.712L1056.91,578.637L1056.99,578.562L1057.06,578.488L1057.14,578.414L1057.21,578.341L1057.28,578.268L1057.36,578.196L1057.43,578.125L1057.51,578.054L1057.58,577.983L1057.66,577.913L1057.73,577.844L1057.81,577.775L1057.88,577.706L1057.96,577.639L1058.03,577.571L1058.11,577.504L1058.18,577.438L1058.26,577.372L1058.33,577.307L1058.41,577.242L1058.48,577.177L1058.56,577.113L1058.63,577.049L1058.71,576.986L1058.78,576.923L1058.86,576.861L1058.93,576.799L1059.01,576.738L1059.08,576.676L1059.16,576.616L1059.23,576.555L1059.31,576.495L1059.38,576.436L1059.46,576.377L1059.53,576.318L1059.61,576.26L1059.68,576.202L1059.76,576.144L1059.83,576.086L1059.91,576.03L1059.98,575.973L1060.06,575.917L1060.13,575.861L1060.21,575.805L1060.28,575.75L1060.36,575.695L1060.43,575.64L1060.51,575.586L1060.58,575.532L1060.65,575.478L1060.73,575.424L1060.8,575.371L1060.88,575.318L1060.95,575.265L1061.02,575.213L1061.1,575.161L1061.17,575.109L1061.25,575.056L1061.39,574.955L1061.54,574.854L1061.69,574.753L1061.83,574.654L1061.98,574.555L1062.12,574.458L1062.27,574.361L1062.41,574.265L1062.56,574.169L1062.7,574.075L1062.84,573.981L1062.98,573.888L1063.12,573.796L1063.27,573.704L1063.41,573.613L1063.55,573.522L1063.69,573.432L1063.96,573.255L1064.24,573.079L1064.51,572.905L1064.78,572.732L1065.04,572.562L1065.31,572.392L1065.44,572.309L1065.57,572.225L1065.69,572.142L1065.82,572.059L1065.95,571.976L1066.08,571.894L1066.2,571.812L1066.33,571.73L1066.45,571.649L1066.57,571.568L1066.69,571.487L1066.81,571.406L1066.93,571.325L1067.05,571.245L1067.17,571.165L1067.28,571.085L1067.4,571.006L1067.52,570.925L1067.57,570.887L1067.63,570.847L1067.68,570.808L1067.74,570.768L1067.79,570.729L1067.85,570.689L1067.9,570.65L1067.96,570.611L1068.01,570.572L1068.07,570.532L1068.12,570.493L1068.17,570.454L1068.23,570.415L1068.28,570.376L1068.33,570.337L1068.38,570.298L1068.44,570.259L1068.49,570.221L1068.54,570.182L1068.59,570.143L1068.64,570.104L1068.69,570.066L1068.74,570.027L1068.79,569.988L1068.84,569.95L1068.89,569.911L1068.94,569.873L1068.99,569.835L1069.04,569.796L1069.09,569.758L1069.13,569.72L1069.18,569.681L1069.23,569.643L1069.27,569.605L1069.32,569.567L1069.37,569.529L1069.41,569.491L1069.46,569.453L1069.5,569.415L1069.55,569.377L1069.59,569.339L1069.63,569.302L1069.68,569.264L1069.72,569.226L1069.76,569.189L1069.81,569.151L1069.85,569.113L1069.89,569.076L1069.93,569.038L1069.97,569.001L1070.02,568.964L1070.06,568.926L1070.1,568.889L1070.14,568.852L1070.17,568.815L1070.21,568.778L1070.25,568.74L1070.29,568.704L1070.33,568.666L1070.37,568.629L1070.41,568.593L1070.44,568.556L1070.48,568.519L1070.52,568.482L1070.55,568.445L1070.59,568.409L1070.62,568.372L1070.66,568.335L1070.69,568.299L1070.73,568.263L1070.76,568.226L1070.8,568.19L1070.83,568.153L1070.86,568.117L1070.9,568.081L1070.93,568.044L1070.96,568.008L1070.99,567.972L1071.02,567.936L1071.06,567.9L1071.09,567.864L1071.12,567.828L1071.15,567.792L1071.18,567.756L1071.21,567.72L1071.24,567.684L1071.27,567.648L1071.29,567.612L1071.32,567.577L1071.35,567.541L1071.38,567.505L1071.41,567.469L1071.43,567.434L1071.46,567.398L1071.49,567.362L1071.51,567.326L1071.54,567.291L1071.57,567.255L1071.59,567.22L1071.62,567.184L1071.64,567.148L1071.67,567.113L1071.69,567.077L1071.71,567.041L1071.74,567.006L1071.76,566.97L1071.79,566.934L1071.81,566.898L1071.83,566.863L1071.85,566.827L1071.88,566.791L1071.9,566.755L1071.92,566.719L1071.94,566.683L1071.96,566.647L1071.98,566.611L1072.01,566.575L1072.03,566.539L1072.05,566.502L1072.07,566.466L1072.09,566.43L1072.11,566.393L1072.12,566.356L1072.14,566.319L1072.16,566.283L1072.18,566.246L1072.2,566.209L1072.22,566.171L1072.24,566.134L1072.26,566.097L1072.27,566.059L1072.29,566.021L1072.31,565.983L1072.33,565.945L1072.34,565.907L1072.36,565.869L1072.38,565.83L1072.39,565.791L1072.41,565.752L1072.42,565.713L1072.44,565.673L1072.46,565.634L1072.47,565.594L1072.49,565.554L1072.5,565.514L1072.52,565.473L1072.53,565.432L1072.55,565.391L1072.56,565.35L1072.58,565.308L1072.59,565.26L1072.6,565.245L1072.6,565.224L1072.61,565.202L1072.62,565.181L1072.62,565.16L1072.63,565.138L1072.64,565.116L1072.64,565.095L1072.65,565.073L1072.66,565.052L1072.66,565.03L1072.67,565.007L1072.68,564.985L1072.68,564.963L1072.69,564.941L1072.69,564.919L1072.7,564.896L1072.71,564.874L1072.71,564.851L1072.72,564.829L1072.72,564.806L1072.73,564.783L1072.74,564.759L1072.74,564.737L1072.75,564.714L1072.75,564.69L1072.76,564.667L1072.77,564.643L1072.77,564.62L1072.78,564.596L1072.78,564.572L1072.79,564.549L1072.79,564.524L1072.8,564.5L1072.8,564.476L1072.81,564.451L1072.81,564.427L1072.82,564.403L1072.82,564.378L1072.83,564.353L1072.83,564.329L1072.84,564.304L1072.84,564.278L1072.85,564.253L1072.85,564.227L1072.86,564.202L1072.86,564.177L1072.87,564.151L1072.87,564.125L1072.88,564.099L1072.88,564.073L1072.88,564.047L1072.89,564.021L1072.89,563.994L1072.9,563.967L1072.9,563.941L1072.91,563.914L1072.91,563.887L1072.91,563.86L1072.92,563.832L1072.92,563.805L1072.92,563.778L1072.93,563.75L1072.93,563.722L1072.94,563.694L1072.94,563.666L1072.94,563.638L1072.95,563.61L1072.95,563.581L1072.95,563.553L1072.96,563.524L1072.96,563.495L1072.96,563.466L1072.96,563.437L1072.97,563.407L1072.97,563.378L1072.97,563.348L1072.98,563.319L1072.98,563.289L1072.98,563.259L1072.98,563.229L1072.99,563.198L1072.99,563.168L1072.99,563.137L1072.99,563.106L1073,563.075L1073,563.044L1073,563.013L1073,562.981L1073,562.95L1073,562.918L1073.01,562.886L1073.01,562.854L1073.01,562.822L1073.01,562.789L1073.01,562.757L1073.01,562.725L1073.01,562.691L1073.01,562.658L1073.02,562.625L1073.02,562.592L1073.02,562.558L1073.02,562.524L1073.02,562.491L1073.02,562.457L1073.02,562.422L1073.02,562.388L1073.02,562.354L1073.02,562.319L1073.02,562.284L1073.02,562.249L1073.02,562.214L1073.02,562.179L1073.02,562.143L1073.02,562.107L1073.02,562.071L1073.02,562.035L1073.02,561.999L1073.02,561.963L1073.02,561.926L1073.01,561.889L1073.01,561.853L1073.01,561.815L1073.01,561.778L1073.01,561.74L1073.01,561.703L1073.01,561.665L1073,561.627L1073,561.589L1073,561.551L1073,561.512L1073,561.473L1072.99,561.434L1072.99,561.395L1072.99,561.356L1072.99,561.317L1072.98,561.277L1072.98,561.237L1072.98,561.197L1072.97,561.157L1072.97,561.117L1072.97,561.076L1072.96,561.036L1072.96,560.994L1072.96,560.953L1072.95,560.912L1072.95,560.871L1072.95,560.829L1072.94,560.787L1072.94,560.745L1072.93,560.703L1072.93,560.66L1072.92,560.618L1072.92,560.575L1072.91,560.532L1072.91,560.489L1072.9,560.446L1072.9,560.402L1072.89,560.358L1072.89,560.314L1072.88,560.27L1072.88,560.226L1072.87,560.181L1072.87,560.137L1072.86,560.092L1072.85,560.047L1072.85,560.001L1072.84,559.956L1072.83,559.911L1072.83,559.864L1072.82,559.818L1072.81,559.772L1072.81,559.726L1072.8,559.679L1072.79,559.632L1072.78,559.585L1072.78,559.538L1072.77,559.491L1072.76,559.443L1072.75,559.395L1072.74,559.347L1072.74,559.299L1072.73,559.251L1072.72,559.202L1072.71,559.153L1072.7,559.104L1072.69,559.055L1072.68,559.006L1072.67,558.956L1072.66,558.906L1072.65,558.857L1072.64,558.806L1072.63,558.756L1072.62,558.709L1072.62,558.683L1072.61,558.662L1072.61,558.64L1072.6,558.618L1072.6,558.597L1072.6,558.575L1072.59,558.554L1072.59,558.532L1072.58,558.511L1072.58,558.49L1072.57,558.469L1072.56,558.448L1072.56,558.427L1072.55,558.406L1072.55,558.385L1072.54,558.365L1072.54,558.344L1072.53,558.323L1072.53,558.303L1072.52,558.283L1072.51,558.262L1072.51,558.242L1072.5,558.222L1072.5,558.201L1072.49,558.181L1072.48,558.161L1072.48,558.141L1072.47,558.121L1072.46,558.102L1072.46,558.082L1072.45,558.062L1072.44,558.042L1072.44,558.023L1072.43,558.003L1072.42,557.983L1072.42,557.964L1072.41,557.945L1072.4,557.925L1072.4,557.906L1072.39,557.886L1072.38,557.867L1072.38,557.848L1072.37,557.829L1072.36,557.809L1072.35,557.79L1072.35,557.772L1072.34,557.752L1072.33,557.733L1072.32,557.714L1072.31,557.695L1072.31,557.676L1072.3,557.658L1072.29,557.639L1072.28,557.62L1072.27,557.601L1072.27,557.583L1072.26,557.564L1072.25,557.545L1072.24,557.527L1072.23,557.508L1072.22,557.49L1072.21,557.471L1072.21,557.453L1072.2,557.434L1072.19,557.416L1072.18,557.398L1072.17,557.379L1072.16,557.361L1072.15,557.343L1072.14,557.324L1072.13,557.306L1072.12,557.288L1072.11,557.269L1072.1,557.251L1072.09,557.233L1072.08,557.215L1072.07,557.197L1072.06,557.178L1072.05,557.16L1072.04,557.142L1072.03,557.124L1072.02,557.106L1072.01,557.088L1072,557.07L1071.99,557.052L1071.98,557.034L1071.97,557.016L1071.96,556.998L1071.95,556.98L1071.94,556.962L1071.93,556.944L1071.92,556.926L1071.9,556.908L1071.89,556.89L1071.88,556.872L1071.87,556.854L1071.86,556.836L1071.85,556.819L1071.84,556.801L1071.83,556.783L1071.81,556.765L1071.8,556.747L1071.79,556.729L1071.78,556.711L1071.76,556.693L1071.75,556.676L1071.74,556.658L1071.73,556.64L1071.71,556.622L1071.7,556.604L1071.69,556.587L1071.68,556.569L1071.66,556.551L1071.65,556.533L1071.64,556.516L1071.62,556.498L1071.61,556.48L1071.6,556.462L1071.58,556.444L1071.57,556.427L1071.56,556.409L1071.54,556.391L1071.53,556.374L1071.51,556.356L1071.5,556.338L1071.49,556.321L1071.47,556.303L1071.46,556.285L1071.44,556.267L1071.43,556.25L1071.41,556.232L1071.4,556.214L1071.38,556.196L1071.37,556.179L1071.35,556.161L1071.34,556.143L1071.32,556.126L1071.31,556.108L1071.29,556.09L1071.28,556.073L1071.26,556.055L1071.24,556.037L1071.23,556.02L1071.21,556.002L1071.19,555.985L1071.18,555.967L1071.16,555.949L1071.15,555.931L1071.13,555.914L1071.11,555.896L1071.1,555.879L1071.08,555.861L1071.06,555.844L1071.05,555.826L1071.03,555.808L1071.01,555.791L1070.99,555.773L1070.97,555.756L1070.96,555.738L1070.94,555.72L1070.92,555.703L1070.9,555.685L1070.88,555.668L1070.87,555.65L1070.85,555.633L1070.83,555.615L1070.81,555.598L1070.79,555.58L1070.77,555.563L1070.76,555.545L1070.74,555.528L1070.72,555.51L1070.7,555.493L1070.68,555.476L1070.66,555.458L1070.64,555.441L1070.62,555.423L1070.6,555.406L1070.58,555.389L1070.56,555.371L1070.54,555.354L1070.52,555.337L1070.5,555.319L1070.48,555.302L1070.46,555.285L1070.44,555.267L1070.42,555.25L1070.4,555.233L1070.38,555.216L1070.35,555.199L1070.33,555.181L1070.31,555.164L1070.29,555.147L1070.27,555.13L1070.25,555.113L1070.22,555.096L1070.2,555.079L1070.18,555.062L1070.16,555.044L1070.14,555.027L1070.11,555.01L1070.09,554.993L1070.07,554.976L1070.05,554.959L1070.02,554.942L1070,554.926L1069.98,554.909L1069.95,554.892L1069.93,554.875L1069.91,554.858L1069.88,554.841L1069.86,554.825L1069.84,554.808L1069.81,554.791L1069.79,554.774L1069.77,554.758L1069.74,554.741L1069.72,554.724L1069.69,554.708L1069.67,554.691L1069.64,554.675L1069.62,554.658L1069.59,554.642L1069.57,554.625L1069.54,554.609L1069.52,554.592L1069.49,554.576L1069.47,554.56L1069.44,554.543L1069.42,554.527L1069.39,554.511L1069.37,554.495L1069.34,554.478L1069.31,554.462L1069.29,554.446L1069.26,554.43L1069.24,554.414L1069.21,554.398L1069.18,554.382L1069.16,554.366L1069.13,554.35L1069.1,554.334L1069.08,554.318L1069.05,554.302L1069.02,554.287L1068.99,554.271L1068.97,554.255L1068.94,554.239L1068.91,554.224L1068.89,554.211L1068.83,554.177L1068.77,554.146L1068.71,554.115L1068.66,554.085L1068.6,554.054L1068.54,554.024L1068.49,553.994L1068.43,553.964L1068.37,553.934L1068.31,553.905L1068.25,553.875L1068.19,553.846L1068.13,553.817L1068.07,553.788L1068.01,553.76L1067.94,553.731L1067.88,553.703L1067.82,553.675L1067.76,553.647L1067.69,553.619L1067.63,553.592L1067.57,553.565L1067.5,553.538L1067.44,553.511L1067.37,553.484L1067.31,553.458L1067.24,553.432L1067.18,553.406L1067.11,553.38L1067.04,553.355L1066.98,553.329L1066.91,553.304L1066.84,553.28L1066.77,553.255L1066.7,553.231L1066.64,553.207L1066.57,553.183L1066.5,553.159L1066.43,553.136L1066.36,553.113L1066.29,553.09L1066.22,553.068L1066.15,553.046L1066.08,553.024L1066.01,553.002L1065.93,552.98L1065.86,552.959L1065.79,552.938L1065.72,552.917L1065.65,552.897L1065.57,552.877L1065.5,552.857L1065.43,552.837L1065.35,552.818L1065.28,552.799L1065.2,552.78L1065.13,552.762L1065.06,552.744L1064.98,552.726L1064.91,552.708L1064.83,552.691L1064.76,552.674L1064.68,552.657L1064.61,552.64L1064.53,552.624L1064.45,552.608L1064.38,552.593L1064.3,552.577L1064.22,552.562L1064.14,552.548L1064.07,552.533L1063.99,552.519L1063.91,552.506L1063.84,552.492L1063.76,552.479L1063.68,552.466L1063.6,552.453L1063.52,552.441L1063.44,552.429L1063.37,552.418L1063.29,552.406L1063.21,552.395L1063.13,552.385L1063.05,552.374L1062.97,552.364L1062.89,552.354L1062.81,552.345L1062.73,552.336L1062.65,552.327L1062.57,552.318L1062.49,552.31L1062.41,552.302L1062.33,552.295L1062.25,552.288L1062.17,552.281L1062.09,552.274L1062.01,552.268L1061.93,552.262L1061.85,552.256L1061.77,552.251L1061.69,552.246L1061.61,552.242L1061.53,552.237L1061.45,552.233L1061.37,552.23L1061.29,552.226L1061.2,552.223L1061.12,552.221L1061.04,552.218L1060.96,552.216L1060.88,552.215L1060.8,552.213L1060.72,552.212L1060.64,552.212L1060.56,552.211L1060.47,552.211L1060.39,552.212L1060.31,552.212L1060.23,552.213L1060.15,552.214L1060.07,552.216L1059.99,552.218L1059.91,552.22L1059.83,552.223L1059.75,552.226L1059.67,552.229L1059.59,552.233L1059.51,552.236L1059.42,552.241L1059.34,552.245L1059.26,552.25L1059.18,552.255L1059.1,552.261L1059.02,552.267L1058.94,552.273L1058.86,552.279L1058.78,552.286L1058.7,552.293L1058.62,552.301L1058.54,552.309L1058.46,552.317L1058.38,552.325L1058.3,552.334L1058.22,552.343L1058.15,552.353L1058.07,552.363L1057.99,552.373L1057.91,552.383L1057.83,552.394L1057.75,552.405L1057.67,552.416L1057.6,552.428L1057.52,552.44L1057.44,552.452L1057.36,552.465L1057.29,552.478L1057.21,552.491L1057.13,552.504L1057.05,552.518L1056.98,552.533L1056.9,552.547L1056.82,552.562L1056.75,552.577L1056.67,552.592L1056.6,552.608L1056.52,552.624L1056.44,552.64L1056.37,552.657L1056.29,552.674L1056.22,552.691L1056.14,552.709L1056.07,552.727L1056,552.745L1055.92,552.763L1055.85,552.782L1055.78,552.801L1055.7,552.82L1055.63,552.84L1055.56,552.86L1055.48,552.88L1055.41,552.9L1055.34,552.921L1055.27,552.942L1055.2,552.963L1055.13,552.985L1055.06,553.007L1054.98,553.029L1054.91,553.051L1054.84,553.074L1054.77,553.097L1054.7,553.12L1054.64,553.144L1054.57,553.168L1054.5,553.192L1054.43,553.216L1054.36,553.24L1054.3,553.265L1054.23,553.29L1054.16,553.316L1054.09,553.341L1054.03,553.367L1053.96,553.393L1053.9,553.42L1053.83,553.446L1053.77,553.473L1053.7,553.5L1053.64,553.527L1053.57,553.557L1053.54,553.569L1053.51,553.583L1053.48,553.597L1053.44,553.611L1053.41,553.625L1053.38,553.639L1053.35,553.653L1053.32,553.668L1053.29,553.682L1053.26,553.696L1053.23,553.711L1053.19,553.725L1053.16,553.74L1053.13,553.755L1053.1,553.769L1053.07,553.784L1053.04,553.799L1053.01,553.814L1052.98,553.829L1052.95,553.844L1052.92,553.859L1052.89,553.874L1052.86,553.889L1052.83,553.904L1052.8,553.919L1052.77,553.934L1052.74,553.95L1052.71,553.965L1052.68,553.981L1052.65,553.996L1052.62,554.012L1052.6,554.027L1052.57,554.043L1052.54,554.059L1052.51,554.074L1052.48,554.09L1052.45,554.106L1052.42,554.122L1052.39,554.138L1052.37,554.154L1052.34,554.17L1052.31,554.186L1052.28,554.202L1052.25,554.218L1052.22,554.235L1052.2,554.251L1052.17,554.267L1052.14,554.284L1052.11,554.3L1052.09,554.317L1052.06,554.333L1052.03,554.35L1052.01,554.367L1051.98,554.383L1051.95,554.4L1051.92,554.417L1051.9,554.433L1051.87,554.45L1051.84,554.467L1051.82,554.484L1051.79,554.501L1051.77,554.518L1051.74,554.535L1051.71,554.553L1051.69,554.57L1051.66,554.587L1051.63,554.604L1051.61,554.622L1051.58,554.639L1051.56,554.656L1051.53,554.674L1051.51,554.691L1051.48,554.709L1051.46,554.726L1051.43,554.744L1051.41,554.762L1051.38,554.779L1051.36,554.797L1051.33,554.815L1051.31,554.833L1051.28,554.85L1051.26,554.868L1051.24,554.886L1051.21,554.904L1051.19,554.922L1051.16,554.94L1051.14,554.958L1051.12,554.977L1051.09,554.995L1051.07,555.013L1051.05,555.031L1051.02,555.05L1051,555.068L1050.97,555.086L1050.95,555.105L1050.93,555.123L1050.91,555.142L1050.88,555.16L1050.86,555.179L1050.84,555.197L1050.82,555.216L1050.79,555.235L1050.77,555.253L1050.75,555.272L1050.73,555.291L1050.7,555.31L1050.68,555.329L1050.66,555.348L1050.64,555.367L1050.62,555.386L1050.6,555.405L1050.57,555.424L1050.55,555.443L1050.53,555.462L1050.51,555.481L1050.49,555.5L1050.47,555.52L1050.45,555.539L1050.43,555.558L1050.41,555.578L1050.38,555.597L1050.37,555.616L1050.35,555.636L1050.32,555.655L1050.3,555.675L1050.28,555.695L1050.26,555.714L1050.24,555.734L1050.22,555.754L1050.2,555.773L1050.18,555.793L1050.16,555.813L1050.15,555.833L1050.13,555.853L1050.11,555.873L1050.09,555.892L1050.07,555.913L1050.05,555.933L1050.03,555.953L1050.01,555.973L1049.99,555.993L1049.97,556.013L1049.96,556.033L1049.94,556.054L1049.92,556.074L1049.9,556.094L1049.88,556.115L1049.86,556.135L1049.85,556.156L1049.83,556.176L1049.81,556.197L1049.79,556.217L1049.77,556.238L1049.76,556.259L1049.74,556.279L1049.72,556.3L1049.7,556.321L1049.69,556.342L1049.67,556.363L1049.65,556.383L1049.64,556.405L1049.62,556.426L1049.6,556.447L1049.59,556.468L1049.57,556.489L1049.55,556.51L1049.54,556.531L1049.52,556.553L1049.5,556.574L1049.49,556.595L1049.47,556.617L1049.45,556.638L1049.44,556.66L1049.42,556.681L1049.41,556.703L1049.39,556.724L1049.37,556.746L1049.36,556.768L1049.34,556.79L1049.33,556.812L1049.31,556.834L1049.3,556.855L1049.28,556.877L1049.27,556.9L1049.25,556.922L1049.24,556.944L1049.22,556.966L1049.21,556.988L1049.19,557.01L1049.18,557.033L1049.16,557.055L1049.15,557.078L1049.13,557.101L1049.12,557.123L1049.11,557.145L1049.09,557.168L1049.08,557.191L1049.06,557.214L1049.05,557.237L1049.03,557.26L1049.02,557.283L1049.01,557.306L1048.99,557.329L1048.98,557.352L1048.97,557.375L1048.95,557.399L1048.94,557.422L1048.92,557.446L1048.91,557.469L1048.9,557.493L1048.89,557.516L1048.87,557.54L1048.86,557.564L1048.85,557.588L1048.83,557.612L1048.82,557.636L1048.81,557.66L1048.8,557.684L1048.78,557.708L1048.77,557.732L1048.76,557.757L1048.75,557.781L1048.73,557.806L1048.72,557.83L1048.71,557.855L1048.7,557.88L1048.69,557.904L1048.67,557.93L1048.66,557.954L1048.65,557.979L1048.64,558.005L1048.63,558.03L1048.62,558.055L1048.6,558.08L1048.59,558.106L1048.58,558.132L1048.57,558.157L1048.56,558.183L1048.55,558.209L1048.54,558.235L1048.53,558.261L1048.52,558.287L1048.5,558.313L1048.49,558.339L1048.48,558.366L1048.47,558.392L1048.46,558.419L1048.45,558.445L1048.44,558.472L1048.43,558.499L1048.42,558.526L1048.41,558.553L1048.4,558.58L1048.39,558.608L1048.38,558.635L1048.37,558.662L1048.36,558.69L1048.35,558.718L1048.34,558.745L1048.33,558.773L1048.32,558.801L1048.31,558.829L1048.3,558.858L1048.29,558.886L1048.29,558.914L1048.28,558.943L1048.27,558.972L1048.26,559L1048.25,559.029L1048.24,559.058L1048.23,559.087L1048.22,559.117L1048.21,559.146L1048.21,559.175L1048.2,559.205L1048.19,559.235L1048.18,559.265L1048.17,559.294L1048.16,559.325L1048.16,559.355L1048.15,559.385L1048.14,559.416L1048.13,559.446L1048.12,559.477L1048.12,559.508L1048.11,559.539L1048.1,559.57L1048.1,559.601L1048.09,559.632L1048.08,559.664L1048.07,559.695L1048.07,559.727L1048.06,559.759L1048.05,559.791L1048.05,559.823L1048.04,559.855L1048.03,559.888L1048.03,559.921L1048.02,559.953L1048.01,559.986L1048.01,560.019L1048,560.053L1048,560.086L1047.99,560.119L1047.98,560.153L1047.98,560.187L1047.97,560.22L1047.97,560.254L1047.96,560.289L1047.96,560.323L1047.95,560.357L1047.95,560.392L1047.94,560.427L1047.94,560.462L1047.93,560.497L1047.93,560.532L1047.92,560.568L1047.92,560.603L1047.91,560.639L1047.91,560.675L1047.9,560.711L1047.9,560.747L1047.9,560.783L1047.89,560.82L1047.89,560.856L1047.88,560.893L1047.88,560.93L1047.88,560.967L1047.87,561.005L1047.87,561.042L1047.87,561.08L1047.86,561.118L1047.86,561.156L1047.86,561.194L1047.86,561.232L1047.85,561.271L1047.85,561.309L1047.85,561.348L1047.85,561.387L1047.84,561.426L1047.84,561.465L1047.84,561.505L1047.84,561.545L1047.84,561.584L1047.84,561.625L1047.83,561.665L1047.83,561.705L1047.83,561.746L1047.83,561.786L1047.83,561.827L1047.83,561.868L1047.83,561.91L1047.83,561.951L1047.83,561.992L1047.83,562.034L1047.83,562.076L1047.83,562.118L1047.83,562.172L1047.75,563.291L1047.5,564.384L1047.1,565.429L1046.54,566.402L1045.84,567.281L1045.03,568.046L1044.1,568.681L1043.09,569.171L1042.02,569.506L1040.91,569.677L1039.79,569.681L1038.68,569.518L1037.61,569.191L1036.6,568.708L1035.67,568.08L1034.85,567.321L1034.15,566.447L1033.58,565.478L1033.17,564.436L1032.91,563.344L1032.83,562.227L1032.83,562.149L1032.83,562.06L1032.83,561.971L1032.83,561.881L1032.83,561.792L1032.83,561.703L1032.83,561.614L1032.83,561.525L1032.84,561.436L1032.84,561.347L1032.84,561.258L1032.84,561.17L1032.85,561.081L1032.85,560.993L1032.85,560.904L1032.86,560.816L1032.86,560.728L1032.87,560.64L1032.87,560.552L1032.88,560.464L1032.88,560.376L1032.89,560.288L1032.89,560.201L1032.9,560.113L1032.9,560.026L1032.91,559.938L1032.92,559.851L1032.92,559.764L1032.93,559.677L1032.94,559.59L1032.95,559.503L1032.96,559.416L1032.97,559.329L1032.97,559.243L1032.98,559.156L1032.99,559.07L1033,558.983L1033.01,558.897L1033.02,558.811L1033.04,558.725L1033.05,558.639L1033.06,558.553L1033.07,558.468L1033.08,558.382L1033.09,558.296L1033.11,558.211L1033.12,558.126L1033.13,558.041L1033.14,557.955L1033.16,557.87L1033.17,557.786L1033.19,557.701L1033.2,557.616L1033.21,557.532L1033.23,557.447L1033.25,557.363L1033.26,557.279L1033.28,557.195L1033.29,557.111L1033.31,557.027L1033.33,556.943L1033.34,556.859L1033.36,556.776L1033.38,556.692L1033.39,556.609L1033.41,556.526L1033.43,556.443L1033.45,556.36L1033.47,556.277L1033.49,556.195L1033.51,556.112L1033.53,556.03L1033.55,555.947L1033.57,555.865L1033.59,555.783L1033.61,555.701L1033.63,555.619L1033.65,555.538L1033.67,555.456L1033.69,555.375L1033.72,555.293L1033.74,555.212L1033.76,555.131L1033.78,555.051L1033.81,554.97L1033.83,554.889L1033.85,554.809L1033.88,554.728L1033.9,554.648L1033.93,554.568L1033.95,554.488L1033.98,554.408L1034,554.329L1034.03,554.249L1034.05,554.17L1034.08,554.091L1034.11,554.012L1034.13,553.933L1034.16,553.854L1034.19,553.775L1034.22,553.697L1034.24,553.619L1034.27,553.541L1034.3,553.463L1034.33,553.385L1034.36,553.307L1034.39,553.229L1034.42,553.152L1034.44,553.075L1034.47,552.998L1034.51,552.921L1034.54,552.844L1034.57,552.767L1034.6,552.691L1034.63,552.615L1034.66,552.539L1034.69,552.462L1034.72,552.387L1034.76,552.311L1034.79,552.236L1034.82,552.16L1034.85,552.085L1034.89,552.01L1034.92,551.935L1034.95,551.861L1034.99,551.786L1035.02,551.712L1035.06,551.638L1035.09,551.563L1035.13,551.49L1035.16,551.416L1035.2,551.343L1035.23,551.269L1035.27,551.196L1035.31,551.123L1035.34,551.05L1035.38,550.978L1035.41,550.905L1035.45,550.833L1035.49,550.761L1035.53,550.689L1035.56,550.618L1035.6,550.546L1035.64,550.475L1035.68,550.403L1035.72,550.333L1035.76,550.262L1035.8,550.191L1035.84,550.121L1035.88,550.05L1035.91,549.98L1035.95,549.91L1036,549.841L1036.04,549.771L1036.08,549.702L1036.12,549.633L1036.16,549.564L1036.2,549.495L1036.24,549.426L1036.28,549.358L1036.33,549.29L1036.37,549.222L1036.41,549.154L1036.45,549.086L1036.5,549.019L1036.54,548.952L1036.58,548.885L1036.63,548.818L1036.67,548.751L1036.71,548.685L1036.76,548.618L1036.8,548.553L1036.85,548.487L1036.89,548.421L1036.94,548.356L1036.98,548.29L1037.03,548.225L1037.07,548.16L1037.12,548.096L1037.17,548.031L1037.21,547.967L1037.26,547.903L1037.31,547.839L1037.35,547.775L1037.4,547.712L1037.45,547.648L1037.49,547.585L1037.54,547.523L1037.59,547.46L1037.64,547.397L1037.68,547.335L1037.73,547.273L1037.78,547.211L1037.83,547.15L1037.88,547.088L1037.93,547.027L1037.98,546.966L1038.03,546.905L1038.08,546.844L1038.13,546.784L1038.18,546.724L1038.23,546.664L1038.28,546.604L1038.33,546.544L1038.38,546.485L1038.43,546.426L1038.48,546.367L1038.53,546.308L1038.58,546.249L1038.63,546.191L1038.68,546.133L1038.74,546.075L1038.79,546.017L1038.84,545.96L1038.89,545.902L1038.95,545.845L1039,545.788L1039.05,545.732L1039.11,545.675L1039.16,545.619L1039.21,545.563L1039.26,545.507L1039.32,545.451L1039.37,545.396L1039.43,545.341L1039.48,545.285L1039.53,545.231L1039.59,545.176L1039.64,545.121L1039.7,545.067L1039.75,545.013L1039.81,544.96L1039.86,544.906L1039.92,544.853L1039.97,544.799L1040.03,544.746L1040.08,544.694L1040.14,544.641L1040.2,544.589L1040.25,544.537L1040.31,544.485L1040.36,544.433L1040.42,544.382L1040.48,544.33L1040.53,544.279L1040.59,544.228L1040.65,544.178L1040.7,544.127L1040.76,544.077L1040.82,544.027L1040.88,543.977L1040.93,543.927L1040.99,543.878L1041.05,543.829L1041.11,543.78L1041.17,543.731L1041.22,543.682L1041.28,543.634L1041.34,543.586L1041.4,543.538L1041.46,543.49L1041.52,543.442L1041.58,543.395L1041.64,543.348L1041.7,543.301L1041.76,543.254L1041.82,543.207L1041.87,543.161L1041.93,543.115L1041.99,543.069L1042.05,543.023L1042.11,542.978L1042.17,542.932L1042.23,542.887L1042.29,542.842L1042.35,542.798L1042.41,542.753L1042.48,542.709L1042.54,542.665L1042.6,542.621L1042.66,542.577L1042.72,542.534L1042.78,542.49L1042.84,542.447L1042.9,542.404L1042.96,542.361L1043.03,542.319L1043.09,542.277L1043.15,542.234L1043.21,542.193L1043.27,542.151L1043.34,542.109L1043.4,542.068L1043.46,542.027L1043.52,541.986L1043.59,541.945L1043.65,541.905L1043.71,541.864L1043.77,541.824L1043.84,541.784L1043.9,541.744L1043.96,541.705L1044.02,541.666L1044.09,541.626L1044.15,541.587L1044.21,541.549L1044.28,541.51L1044.34,541.472L1044.4,541.433L1044.47,541.395L1044.53,541.358L1044.6,541.32L1044.66,541.283L1044.72,541.245L1044.79,541.208L1044.85,541.171L1044.91,541.135L1044.98,541.098L1045.04,541.062L1045.11,541.026L1045.17,540.99L1045.24,540.954L1045.3,540.919L1045.37,540.884L1045.43,540.848L1045.5,540.813L1045.56,540.779L1045.63,540.744L1045.69,540.71L1045.76,540.676L1045.82,540.642L1045.89,540.608L1045.95,540.574L1046.02,540.541L1046.08,540.507L1046.15,540.474L1046.21,540.441L1046.28,540.409L1046.35,540.376L1046.41,540.344L1046.48,540.312L1046.54,540.28L1046.61,540.248L1046.67,540.216L1046.74,540.185L1046.81,540.153L1046.87,540.122L1046.94,540.092L1047.01,540.061L1047.07,540.03L1047.14,540L1047.21,539.97L1047.27,539.94L1047.34,539.91L1047.41,539.88L1047.47,539.851L1047.54,539.822L1047.61,539.791L1047.74,539.735L1047.87,539.678L1048.01,539.622L1048.14,539.566L1048.28,539.511L1048.41,539.457L1048.55,539.404L1048.68,539.351L1048.82,539.299L1048.95,539.248L1049.09,539.197L1049.23,539.147L1049.36,539.098L1049.5,539.049L1049.64,539.001L1049.77,538.954L1049.91,538.908L1050.05,538.862L1050.18,538.816L1050.32,538.772L1050.46,538.728L1050.6,538.685L1050.73,538.642L1050.87,538.6L1051.01,538.559L1051.15,538.518L1051.29,538.478L1051.43,538.439L1051.56,538.401L1051.7,538.363L1051.84,538.325L1051.98,538.289L1052.12,538.253L1052.26,538.217L1052.4,538.182L1052.54,538.148L1052.68,538.115L1052.82,538.082L1052.96,538.05L1053.1,538.018L1053.24,537.987L1053.38,537.957L1053.52,537.927L1053.66,537.898L1053.8,537.87L1053.94,537.842L1054.08,537.814L1054.22,537.788L1054.36,537.762L1054.5,537.737L1054.64,537.712L1054.78,537.688L1054.92,537.664L1055.07,537.641L1055.21,537.619L1055.35,537.597L1055.49,537.576L1055.63,537.556L1055.77,537.536L1055.91,537.516L1056.06,537.498L1056.2,537.48L1056.34,537.462L1056.48,537.445L1056.62,537.429L1056.76,537.413L1056.9,537.398L1057.05,537.384L1057.19,537.37L1057.33,537.356L1057.47,537.344L1057.61,537.331L1057.76,537.32L1057.9,537.309L1058.04,537.299L1058.18,537.289L1058.32,537.28L1058.46,537.271L1058.61,537.263L1058.75,537.255L1058.89,537.249L1059.03,537.242L1059.17,537.237L1059.32,537.231L1059.46,537.227L1059.6,537.223L1059.74,537.22L1059.88,537.217L1060.03,537.214L1060.17,537.213L1060.31,537.212L1060.45,537.211L1060.59,537.211Z" style="fill:white;"/>
            </g>
            <g transform="matrix(1.08048,0,0,1.08048,-81.7138,-46.9756)">
                <circle cx="1055.52" cy="613.079" r="7.32" style="fill:white;"/>
            </g>
        </g>
    </g>
</svg>
