<?xml version="1.0" encoding="UTF-8" standalone="no"?>
<!DOCTYPE svg PUBLIC "-//W3C//DTD SVG 1.1//EN" "http://www.w3.org/Graphics/SVG/1.1/DTD/svg11.dtd">
<svg width="100%" height="100%" viewBox="0 0 478 458" version="1.1" xmlns="http://www.w3.org/2000/svg" xmlns:xlink="http://www.w3.org/1999/xlink" xml:space="preserve" style="fill-rule:evenodd;clip-rule:evenodd;stroke-linejoin:round;stroke-miterlimit:1.41421;">
    <g transform="matrix(1,0,0,1,-11,-21)">
        <g id="Hint-Icon" transform="matrix(3.46439,0,0,3.46439,-4446.76,-1886.59)">
            <path d="M1374.45,682.806L1336.07,682.806C1334.31,682.806 1332.88,681.377 1332.88,679.618L1332.88,673.241C1332.88,671.482 1334.31,670.053 1336.07,670.053L1374.45,670.053C1376.21,670.053 1377.64,671.482 1377.64,673.241L1377.64,679.618C1377.64,681.377 1376.21,682.806 1374.45,682.806ZM1332.71,658.838C1318.73,650.989 1309.27,636.017 1309.27,618.854C1309.27,593.565 1329.8,573.033 1355.09,573.033C1380.38,573.033 1400.91,593.565 1400.91,618.854C1400.91,636.017 1391.45,650.989 1377.47,658.838L1377.47,663.216C1377.47,665.001 1376.02,666.45 1374.24,666.45L1335.94,666.45C1334.16,666.45 1332.71,665.001 1332.71,663.216L1332.71,658.838ZM1408.65,655.633C1410.9,656.933 1413.78,656.16 1415.08,653.909C1416.38,651.658 1415.61,648.776 1413.36,647.476L1408.04,644.405C1405.79,643.106 1402.9,643.878 1401.6,646.129C1400.3,648.38 1401.08,651.263 1403.33,652.562L1408.65,655.633ZM1302.81,655.633C1300.56,656.933 1297.67,656.16 1296.37,653.909C1295.07,651.658 1295.85,648.776 1298.1,647.476L1303.42,644.405C1305.67,643.106 1308.55,643.878 1309.85,646.129C1311.15,648.38 1310.38,651.263 1308.13,652.562L1302.81,655.633ZM1355.09,646.225C1354.14,646.24 1353.18,645.884 1352.45,645.156L1336.79,629.498C1335.37,628.072 1335.37,625.757 1336.79,624.331C1338.22,622.906 1340.53,622.906 1341.96,624.331L1355.09,637.464L1368.22,624.331C1369.65,622.906 1371.96,622.906 1373.39,624.331C1374.82,625.757 1374.82,628.072 1373.39,629.498L1357.73,645.156C1357,645.884 1356.04,646.24 1355.09,646.225ZM1419.76,615.019C1422.36,615.019 1424.47,617.129 1424.47,619.728C1424.47,622.328 1422.36,624.438 1419.76,624.438L1413.62,624.438C1411.02,624.438 1408.91,622.328 1408.91,619.728C1408.91,617.129 1411.02,615.019 1413.62,615.019L1419.76,615.019ZM1297.83,624.438L1291.69,624.438C1289.09,624.438 1286.98,622.328 1286.98,619.728C1286.98,617.129 1289.09,615.019 1291.69,615.019L1297.83,615.019C1300.43,615.019 1302.54,617.129 1302.54,619.728C1302.54,622.328 1300.43,624.438 1297.83,624.438ZM1413.67,591.45C1415.92,590.151 1416.7,587.268 1415.4,585.017C1414.1,582.766 1411.21,581.993 1408.96,583.293L1403.64,586.364C1401.39,587.664 1400.62,590.546 1401.92,592.797C1403.22,595.048 1406.1,595.821 1408.35,594.521L1413.67,591.45ZM1297.78,591.45C1295.53,590.151 1294.76,587.268 1296.06,585.017C1297.36,582.766 1300.24,581.993 1302.49,583.293L1307.81,586.364C1310.06,587.664 1310.83,590.546 1309.53,592.797C1308.23,595.048 1305.35,595.821 1303.1,594.521L1297.78,591.45ZM1391.89,566.012C1393.19,563.761 1392.42,560.878 1390.17,559.578C1387.92,558.279 1385.04,559.051 1383.74,561.302L1380.66,566.621C1379.37,568.872 1380.14,571.754 1382.39,573.054C1384.64,574.354 1387.52,573.581 1388.82,571.33L1391.89,566.012ZM1319.56,566.012C1318.26,563.761 1319.03,560.878 1321.29,559.578C1323.54,558.279 1326.42,559.051 1327.72,561.302L1330.79,566.621C1332.09,568.872 1331.32,571.754 1329.07,573.054C1326.81,574.354 1323.93,573.581 1322.63,571.33L1319.56,566.012ZM1360.38,555.361C1360.38,552.761 1358.27,550.651 1355.67,550.651C1353.07,550.651 1350.96,552.761 1350.96,555.361L1350.96,561.502C1350.96,564.101 1353.07,566.212 1355.67,566.212C1358.27,566.212 1360.38,564.101 1360.38,561.502L1360.38,555.361Z" style="fill:white;"/>
        </g>
    </g>
</svg>
