<?xml version="1.0" encoding="UTF-8" standalone="no"?>
<!DOCTYPE svg PUBLIC "-//W3C//DTD SVG 1.1//EN" "http://www.w3.org/Graphics/SVG/1.1/DTD/svg11.dtd">
<svg width="100%" height="100%" viewBox="0 0 479 405" version="1.1" xmlns="http://www.w3.org/2000/svg" xmlns:xlink="http://www.w3.org/1999/xlink" xml:space="preserve" style="fill-rule:evenodd;clip-rule:evenodd;stroke-linejoin:round;stroke-miterlimit:1.41421;">
    <g transform="matrix(1,0,0,1,-9,-39)">
        <g id="Home-Icon" transform="matrix(4.72719,0,0,4.72719,-1020.08,-2304.02)">
            <path d="M258.68,581.264L244.563,581.264C239.286,581.264 235.002,576.979 235.002,571.702L235.002,543.531L268.452,517.339L301.903,543.531L301.903,571.702C301.903,576.979 297.619,581.263 292.341,581.264L278.225,581.264L278.225,561.97C278.225,560.352 276.911,559.038 275.293,559.038L261.611,559.038C259.993,559.038 258.68,560.352 258.68,561.97L258.68,581.264ZM285.382,508.293L285.382,503.16C285.382,499.026 288.738,495.669 292.872,495.669C297.006,495.669 300.362,499.026 300.362,503.16L300.362,518.85C300.362,519.227 300.334,519.597 300.281,519.958L316.226,532.444C319.39,534.921 319.948,539.502 317.47,542.667C314.992,545.831 310.412,546.388 307.247,543.911L268.452,513.534L229.657,543.911C226.493,546.388 221.912,545.831 219.434,542.667C216.957,539.502 217.514,534.921 220.678,532.444L263.959,498.555C265.29,497.513 266.871,497.008 268.441,497.008L268.449,497.008L268.452,497.008L268.456,497.008L268.463,497.008C270.033,497.008 271.615,497.513 272.946,498.555L285.382,508.293Z" style="fill:white;"/>
        </g>
    </g>
</svg>
