<?xml version="1.0" encoding="UTF-8" standalone="no"?>
<!DOCTYPE svg PUBLIC "-//W3C//DTD SVG 1.1//EN" "http://www.w3.org/Graphics/SVG/1.1/DTD/svg11.dtd">
<svg width="100%" height="100%" viewBox="0 0 444 478" version="1.1" xmlns="http://www.w3.org/2000/svg" xmlns:xlink="http://www.w3.org/1999/xlink" xml:space="preserve" style="fill-rule:evenodd;clip-rule:evenodd;stroke-linejoin:round;stroke-miterlimit:1.41421;">
    <g transform="matrix(1,0,0,1,-28,-11)">
        <g id="Lock-Icon" transform="matrix(4.80854,0,0,4.80854,-4428.97,-2291.39)">
            <path d="M946.921,511.965L946.921,505.037C946.921,490.607 959.209,478.91 974.366,478.91C989.524,478.91 1001.81,490.607 1001.81,505.037L1001.81,511.965L1007.49,511.965C1013.93,511.965 1019.16,517.194 1019.16,523.633L1019.16,566.454C1019.16,572.894 1013.93,578.122 1007.49,578.122L938.619,578.122C932.179,578.122 926.951,572.894 926.951,566.454L926.951,523.633C926.951,517.194 932.179,511.965 938.619,511.965L946.921,511.965ZM970.183,549.598C965.403,548.358 961.877,544.096 961.877,539.034C961.877,533.003 966.885,528.106 973.054,528.106C979.224,528.106 984.232,533.003 984.232,539.034C984.232,544.096 980.705,548.358 975.926,549.598L979.368,559.314C979.584,559.926 979.491,560.606 979.116,561.136C978.741,561.666 978.132,561.982 977.482,561.982C974.926,561.982 971.183,561.982 968.626,561.982C967.977,561.982 967.368,561.666 966.993,561.136C966.618,560.606 966.524,559.926 966.741,559.314L970.183,549.598ZM992.663,511.965L992.663,505.037C992.663,495.418 984.471,487.619 974.366,487.619C964.261,487.619 956.07,495.418 956.07,505.037L956.07,511.965L992.663,511.965Z" style="fill:white;"/>
        </g>
    </g>
</svg>
