<?xml version="1.0" encoding="UTF-8" standalone="no"?>
<!DOCTYPE svg PUBLIC "-//W3C//DTD SVG 1.1//EN" "http://www.w3.org/Graphics/SVG/1.1/DTD/svg11.dtd">
<svg width="100%" height="100%" viewBox="0 0 471 469" version="1.1" xmlns="http://www.w3.org/2000/svg" xmlns:xlink="http://www.w3.org/1999/xlink" xml:space="preserve" style="fill-rule:evenodd;clip-rule:evenodd;stroke-linejoin:round;stroke-miterlimit:1.41421;">
    <g transform="matrix(1,0,0,1,-12,-18)">
        <g id="More-Icon" transform="matrix(10.2603,0,0,10.2603,-7595.91,-413.35)">
            <path d="M772.07,57.317L779.846,57.317C782.086,57.317 783.718,57.589 784.742,58.133C785.766,58.677 786.454,59.493 786.806,60.581C787.158,61.669 787.334,63.125 787.334,64.949C787.334,66.773 787.174,68.229 786.854,69.317C786.534,70.405 785.99,71.173 785.222,71.621C784.07,72.197 782.438,72.485 780.326,72.485L772.07,72.485L772.07,80.261C772.07,82.501 771.798,84.133 771.254,85.157C770.71,86.181 769.894,86.869 768.806,87.221C767.718,87.573 766.262,87.749 764.438,87.749C762.614,87.749 761.158,87.573 760.07,87.221C758.982,86.869 758.214,86.277 757.766,85.445C757.19,84.229 756.902,82.469 756.902,80.165L756.902,72.485L748.55,72.485C746.438,72.485 744.902,72.229 743.942,71.717C742.982,71.205 742.342,70.389 742.022,69.269C741.702,68.149 741.542,66.693 741.542,64.901C741.542,63.109 741.718,61.653 742.07,60.533C742.422,59.413 743.046,58.629 743.942,58.181C745.158,57.605 746.918,57.317 749.222,57.317L756.902,57.317L756.902,49.541C756.902,47.301 757.158,45.669 757.67,44.645C758.182,43.621 758.998,42.933 760.118,42.581C761.238,42.229 762.694,42.053 764.486,42.053C766.278,42.053 767.734,42.229 768.854,42.581C769.974,42.933 770.758,43.525 771.206,44.357C771.782,45.573 772.07,47.333 772.07,49.637L772.07,57.317Z" style="fill:white;fill-rule:nonzero;"/>
        </g>
    </g>
</svg>
