<?xml version="1.0" encoding="UTF-8" standalone="no"?>
<!DOCTYPE svg PUBLIC "-//W3C//DTD SVG 1.1//EN" "http://www.w3.org/Graphics/SVG/1.1/DTD/svg11.dtd">
<svg width="100%" height="100%" viewBox="0 0 484 484" version="1.1" xmlns="http://www.w3.org/2000/svg" xmlns:xlink="http://www.w3.org/1999/xlink" xml:space="preserve" style="fill-rule:evenodd;clip-rule:evenodd;stroke-linejoin:round;stroke-miterlimit:1.41421;">
    <g transform="matrix(1,0,0,1,-9,-9)">
        <g id="Music-Off-Icon" transform="matrix(3.2969,0,0,3.2969,-29.1398,-29.1398)">
            <path d="M32.151,147.952L23.989,156.114C21.201,158.902 16.674,158.902 13.886,156.114C11.098,153.326 11.098,148.799 13.886,146.011L146.011,13.886C148.799,11.098 153.326,11.098 156.114,13.886C158.902,16.674 158.902,21.201 156.114,23.989L148.759,31.343L148.692,116.483C148.695,116.566 148.697,116.645 148.696,116.722C148.796,127.254 138.922,136.549 125.61,137.971C111.448,139.483 98.76,131.513 97.269,120.168C95.779,108.824 106.05,98.401 120.212,96.888C125.846,96.287 131.247,97.186 135.803,99.201L135.803,50.846L128.297,51.805L72.78,107.323L72.78,129.278C72.791,129.42 72.796,129.552 72.795,129.676C73.095,140.335 63.158,149.801 49.715,151.237C43.243,151.928 37.079,150.638 32.151,147.952ZM117.289,22.496L82.07,57.715L72.78,58.903L72.78,67.005L59.892,79.893L59.895,29.637L117.289,22.496Z" style="fill:white;"/>
        </g>
    </g>
</svg>
