<?xml version="1.0" encoding="UTF-8" standalone="no"?>
<!DOCTYPE svg PUBLIC "-//W3C//DTD SVG 1.1//EN" "http://www.w3.org/Graphics/SVG/1.1/DTD/svg11.dtd">
<svg width="100%" height="100%" viewBox="0 0 422 439" version="1.1" xmlns="http://www.w3.org/2000/svg" xmlns:xlink="http://www.w3.org/1999/xlink" xml:space="preserve" style="fill-rule:evenodd;clip-rule:evenodd;stroke-linejoin:round;stroke-miterlimit:1.41421;">
    <g transform="matrix(1,0,0,1,-40,-32)">
        <g id="Music-Icon" transform="matrix(5.26567,0,0,5.26567,-11074,-1109.78)">
            <path d="M2135.01,275.635L2135.01,223.779L2190.66,216.856L2190.61,278.154C2190.61,278.206 2190.62,278.256 2190.61,278.304C2190.68,284.898 2184.49,290.718 2176.16,291.608C2167.29,292.555 2159.35,287.565 2158.42,280.462C2157.48,273.359 2163.91,266.833 2172.78,265.886C2176.31,265.509 2179.69,266.072 2182.54,267.334L2182.54,237.058L2143.08,242.103L2143.08,286.165C2143.09,286.254 2143.09,286.337 2143.09,286.415C2143.28,293.089 2137.06,299.015 2128.64,299.914C2119.78,300.861 2111.83,295.871 2110.9,288.768C2109.96,281.665 2116.39,275.139 2125.26,274.192C2128.78,273.816 2132.16,274.377 2135.01,275.635Z" style="fill:white;"/>
        </g>
    </g>
</svg>
