<?xml version="1.0" encoding="UTF-8" standalone="no"?>
<!DOCTYPE svg PUBLIC "-//W3C//DTD SVG 1.1//EN" "http://www.w3.org/Graphics/SVG/1.1/DTD/svg11.dtd">
<svg width="100%" height="100%" viewBox="0 0 472 422" version="1.1" xmlns="http://www.w3.org/2000/svg" xmlns:xlink="http://www.w3.org/1999/xlink" xml:space="preserve" style="fill-rule:evenodd;clip-rule:evenodd;stroke-linejoin:round;stroke-miterlimit:1.41421;">
    <g transform="matrix(1,0,0,1,-14,-39)">
        <g id="Ranking-Icon" transform="matrix(6.24272,0,0,5.9257,-12495.1,-4350.73)">
            <g transform="matrix(0.423678,0,0,0.544022,1544.55,678.785)">
                <path d="M1199.82,125.066C1199.82,119.029 1193.85,114.129 1186.49,114.129L1159.83,114.129C1152.48,114.129 1146.5,119.029 1146.5,125.066L1146.5,233.809C1146.5,239.845 1152.48,244.746 1159.83,244.746L1186.49,244.746C1193.85,244.746 1199.82,239.845 1199.82,233.809L1199.82,125.066Z" style="fill:white;"/>
            </g>
            <g transform="matrix(0.423678,0,0,0.360452,1518.16,723.713)">
                <path d="M1199.82,130.635C1199.82,121.525 1193.85,114.129 1186.49,114.129L1159.83,114.129C1152.48,114.129 1146.5,121.525 1146.5,130.635L1146.5,228.239C1146.5,237.35 1152.48,244.746 1159.83,244.746L1186.49,244.746C1193.85,244.746 1199.82,237.35 1199.82,228.239L1199.82,130.635Z" style="fill:white;"/>
            </g>
            <g transform="matrix(0.423678,0,0,0.209766,1570.95,760.593)">
                <path d="M1199.82,142.493C1199.82,126.838 1193.85,114.129 1186.49,114.129L1159.83,114.129C1152.48,114.129 1146.5,126.838 1146.5,142.493L1146.5,216.382C1146.5,232.036 1152.48,244.746 1159.83,244.746L1186.49,244.746C1193.85,244.746 1199.82,232.036 1199.82,216.382L1199.82,142.493Z" style="fill:white;"/>
            </g>
        </g>
    </g>
</svg>
