<?xml version="1.0" encoding="UTF-8" standalone="no"?>
<!DOCTYPE svg PUBLIC "-//W3C//DTD SVG 1.1//EN" "http://www.w3.org/Graphics/SVG/1.1/DTD/svg11.dtd">
<svg width="100%" height="100%" viewBox="0 0 474 390" version="1.1" xmlns="http://www.w3.org/2000/svg" xmlns:xlink="http://www.w3.org/1999/xlink" xml:space="preserve" style="fill-rule:evenodd;clip-rule:evenodd;stroke-linejoin:round;stroke-miterlimit:1.41421;">
    <g transform="matrix(1,0,0,1,-13,-55)">
        <g id="Ranking-Icon" transform="matrix(6.80374,0,0,6.80374,-7131.82,-125.672)">
            <path d="M1098.23,76.625C1099.21,76.625 1100.01,77.422 1100.01,78.404L1100.01,81.963C1100.01,82.945 1099.21,83.742 1098.23,83.742L1071.7,83.742C1070.72,83.742 1069.93,82.945 1069.93,81.963L1069.93,78.404C1069.93,77.422 1070.72,76.625 1071.7,76.625L1098.23,76.625ZM1080.82,69.3C1066.81,65.623 1064.57,43.707 1063.98,27.145C1063.97,27.026 1064.02,26.91 1064.1,26.824C1064.18,26.738 1064.3,26.689 1064.42,26.689C1068.67,26.689 1101.26,26.689 1105.52,26.689C1105.63,26.689 1105.75,26.738 1105.83,26.824C1105.91,26.91 1105.96,27.026 1105.96,27.145C1105.36,43.837 1103.37,65.968 1089.11,69.383C1089.11,69.383 1089.11,73.676 1089.11,74.53C1089.11,74.569 1089.1,74.607 1089.07,74.634C1089.04,74.662 1089.01,74.677 1088.97,74.677C1087.95,74.677 1081.98,74.677 1080.96,74.677C1080.93,74.677 1080.89,74.662 1080.86,74.634C1080.83,74.607 1080.82,74.569 1080.82,74.53C1080.82,73.668 1080.82,69.3 1080.82,69.3ZM1050.14,34.315C1050.14,34.198 1050.18,34.085 1050.27,34.002C1050.35,33.918 1050.46,33.872 1050.58,33.872C1052.7,33.873 1061.76,33.876 1061.76,33.876C1061.87,35.592 1062,37.307 1062.17,39.007L1055.92,39.001C1056.09,41.075 1056.83,52.592 1065.68,56.189C1066.54,58.607 1067.56,60.845 1068.78,62.835C1059.99,61.873 1050.26,55.814 1050.14,34.315ZM1108.11,33.876C1108.11,33.876 1117.22,33.873 1119.35,33.872C1119.47,33.872 1119.58,33.918 1119.67,34.002C1119.75,34.085 1119.8,34.198 1119.79,34.315C1119.67,55.619 1110.12,61.762 1101.39,62.808C1102.59,60.81 1103.58,58.561 1104.41,56.124C1113.11,52.455 1113.84,41.062 1114.01,39.001L1107.72,39.007C1107.88,37.312 1108.01,35.598 1108.11,33.876Z" style="fill:white;"/>
        </g>
    </g>
</svg>
