<?xml version="1.0" encoding="UTF-8" standalone="no"?>
<!DOCTYPE svg PUBLIC "-//W3C//DTD SVG 1.1//EN" "http://www.w3.org/Graphics/SVG/1.1/DTD/svg11.dtd">
<svg width="100%" height="100%" viewBox="0 0 478 479" version="1.1" xmlns="http://www.w3.org/2000/svg" xmlns:xlink="http://www.w3.org/1999/xlink" xml:space="preserve" style="fill-rule:evenodd;clip-rule:evenodd;stroke-linejoin:round;stroke-miterlimit:1.41421;">
    <g transform="matrix(1,0,0,1,-10,-10)">
        <g id="Repeat-Left-Icon" transform="matrix(5.50428,0,0,5.77039,-2155.39,-3799.04)">
            <g id="Undo-Icon" transform="matrix(3.4058,0,0,3.36548,-2824.34,-11070.5)">
                <path d="M949.536,3489.52L951.658,3491.63C953.283,3490.01 955.52,3489 958,3489C962.971,3489 967,3493.03 967,3498C967,3502.97 962.971,3507 958,3507C954.409,3507 951.318,3504.89 949.874,3501.85C949.874,3501.85 949.622,3501 948.5,3501C947.672,3501 947,3501.67 947,3502.5C947,3502.79 947.101,3503.04 947.24,3503.26C949.192,3507.25 953.266,3510 958,3510C964.627,3510 970,3504.63 970,3498C970,3491.37 964.627,3486 958,3486C954.689,3486 951.703,3487.35 949.536,3489.52Z" style="fill:white;stroke:white;stroke-width:0.46px;"/>
            </g>
            <g transform="matrix(-1.07697,-1.05151,0.631187,-0.646472,418.089,1561.52)">
                <path d="M412.827,669.582C412.987,669.261 413.222,669.069 413.467,669.058C413.713,669.046 413.943,669.217 414.097,669.524C416.3,673.931 423.772,688.875 426.649,694.628C426.851,695.033 426.887,695.61 426.739,696.102C426.592,696.595 426.289,696.911 425.965,696.911C420.76,696.911 405.902,696.911 400.86,696.911C400.544,696.911 400.265,696.611 400.14,696.137C400.015,695.664 400.067,695.101 400.274,694.687C403.116,689.003 410.579,674.078 412.827,669.582Z" style="fill:white;stroke:white;stroke-width:1.65px;"/>
            </g>
        </g>
    </g>
</svg>
