<?xml version="1.0" encoding="UTF-8" standalone="no"?>
<!DOCTYPE svg PUBLIC "-//W3C//DTD SVG 1.1//EN" "http://www.w3.org/Graphics/SVG/1.1/DTD/svg11.dtd">
<svg width="100%" height="100%" viewBox="0 0 470 470" version="1.1" xmlns="http://www.w3.org/2000/svg" xmlns:xlink="http://www.w3.org/1999/xlink" xml:space="preserve" style="fill-rule:evenodd;clip-rule:evenodd;stroke-linejoin:round;stroke-miterlimit:1.41421;">
    <g transform="matrix(1,0,0,1,-15,-15)">
        <g id="Settings-Icon" transform="matrix(5.47377,0,0,5.53934,-300.835,-369.557)">
            <g id="Settings-Icon1" transform="matrix(1.41458,0,0,1.41458,-1742.45,37.8453)">
                <path d="M1305.19,22.342C1306.45,22.342 1307.47,23.363 1307.47,24.621L1307.47,31.223C1310.12,31.779 1312.59,32.809 1314.78,34.219L1319.53,29.528C1320.42,28.649 1321.86,28.649 1322.75,29.528L1325.97,32.713C1326.86,33.591 1326.86,35.018 1325.97,35.897L1321.23,40.588C1322.65,42.758 1323.69,45.196 1324.26,47.809L1330.99,47.809C1332.24,47.809 1333.25,48.818 1333.25,50.061L1333.25,54.565C1333.25,55.808 1332.24,56.817 1330.99,56.817L1324.26,56.817C1323.69,59.43 1322.65,61.869 1321.23,64.038L1325.97,68.729C1326.86,69.608 1326.86,71.035 1325.97,71.914L1322.75,75.099C1321.86,75.978 1320.42,75.977 1319.53,75.099L1314.78,70.408C1312.59,71.817 1310.12,72.848 1307.47,73.404L1307.47,80.006C1307.47,81.264 1306.45,82.285 1305.19,82.285L1300.64,82.285C1299.38,82.285 1298.36,81.264 1298.36,80.006L1298.36,73.404C1295.71,72.847 1293.25,71.817 1291.05,70.408L1286.3,75.099C1285.41,75.977 1283.97,75.978 1283.08,75.099L1279.86,71.914C1278.97,71.035 1278.97,69.608 1279.86,68.729L1284.6,64.038C1283.18,61.869 1282.13,59.43 1281.57,56.817L1274.84,56.817C1273.59,56.817 1272.58,55.808 1272.58,54.565L1272.58,50.061C1272.58,48.818 1273.59,47.809 1274.84,47.809L1281.57,47.809C1282.13,45.196 1283.18,42.758 1284.6,40.588L1279.86,35.897C1278.97,35.018 1278.97,33.591 1279.86,32.713L1283.08,29.528C1283.97,28.649 1285.41,28.649 1286.3,29.528L1291.05,34.219C1293.25,32.809 1295.71,31.779 1298.36,31.223L1298.36,24.621C1298.36,23.363 1299.38,22.342 1300.64,22.342L1305.19,22.342ZM1302.91,38.017C1310.9,38.017 1317.38,44.423 1317.38,52.313C1317.38,60.203 1310.9,66.609 1302.91,66.609C1294.93,66.609 1288.45,60.203 1288.45,52.313C1288.45,44.423 1294.93,38.017 1302.91,38.017Z" style="fill:white;"/>
            </g>
            <g transform="matrix(1.11282,0,0,1.11282,-8.18883,-3.98606)">
                <path d="M97.788,75.561C113.533,75.561 126.316,88.344 126.316,104.089C126.316,119.834 113.533,132.617 97.788,132.617C82.043,132.617 69.26,119.834 69.26,104.089C69.26,88.344 82.043,75.561 97.788,75.561ZM97.788,86.058C107.74,86.058 115.82,94.138 115.82,104.089C115.82,114.041 107.74,122.121 97.788,122.121C87.836,122.121 79.757,114.041 79.757,104.089C79.757,94.138 87.836,86.058 97.788,86.058Z" style="fill:white;"/>
            </g>
        </g>
    </g>
</svg>
