<?xml version="1.0" encoding="UTF-8" standalone="no"?>
<!DOCTYPE svg PUBLIC "-//W3C//DTD SVG 1.1//EN" "http://www.w3.org/Graphics/SVG/1.1/DTD/svg11.dtd">
<svg width="100%" height="100%" viewBox="0 0 526 495" version="1.1" xmlns="http://www.w3.org/2000/svg" xmlns:xlink="http://www.w3.org/1999/xlink" xml:space="preserve" style="fill-rule:evenodd;clip-rule:evenodd;stroke-linecap:round;stroke-linejoin:round;stroke-miterlimit:1.41421;">
    <g transform="matrix(1,0,0,1,13,-15)">
        <g id="Sharing-Icon" transform="matrix(5.41357,0,0,5.32469,-4031.42,281.456)">
            <g transform="matrix(0.146713,0,0,0.146713,735.851,-64.2955)">
                <path d="M642.847,275.492C662.727,314.609 673.907,358.685 673.907,405.295C673.907,566.622 539.971,697.599 375,697.599C210.029,697.599 76.093,566.622 76.093,405.295C76.093,358.685 87.273,314.609 107.153,275.492" style="fill:none;stroke:white;stroke-width:64.92px;"/>
            </g>
            <g transform="matrix(0.714632,-1.25416e-32,5.80903e-33,0.555781,596.931,-1188.21)">
                <path d="M263.66,2053.77C265.388,2050.31 268.516,2048.2 271.893,2048.2C275.27,2048.2 278.398,2050.31 280.126,2053.77C285.816,2065.15 293.369,2080.26 299.143,2091.8C300.906,2095.33 300.944,2099.71 299.241,2103.28C297.538,2106.85 294.356,2109.06 290.91,2109.06C279.446,2109.06 264.34,2109.06 252.877,2109.06C249.43,2109.06 246.249,2106.85 244.545,2103.28C242.842,2099.71 242.88,2095.33 244.643,2091.8C250.417,2080.26 257.97,2065.15 263.66,2053.77Z" style="fill:white;"/>
            </g>
            <g transform="matrix(0.462943,0,0,0.476255,196.804,-433.99)">
                <path d="M1302.75,860.882C1302.75,850.668 1294.36,842.375 1284.03,842.375C1273.69,842.375 1265.3,850.668 1265.3,860.882L1265.3,896.173C1265.3,906.387 1273.69,914.68 1284.03,914.68C1294.36,914.68 1302.75,906.387 1302.75,896.173L1302.75,860.882Z" style="fill:white;"/>
            </g>
        </g>
    </g>
</svg>
