<?xml version="1.0" encoding="UTF-8" standalone="no"?>
<!DOCTYPE svg PUBLIC "-//W3C//DTD SVG 1.1//EN" "http://www.w3.org/Graphics/SVG/1.1/DTD/svg11.dtd">
<svg width="100%" height="100%" viewBox="0 0 426 483" version="1.1" xmlns="http://www.w3.org/2000/svg" xmlns:xlink="http://www.w3.org/1999/xlink" xml:space="preserve" style="fill-rule:evenodd;clip-rule:evenodd;stroke-linejoin:round;stroke-miterlimit:1.41421;">
    <g transform="matrix(1,0,0,1,-32,-7)">
        <g id="Share-Icon" transform="matrix(8.05152,0,0,8.05152,-448.66,-10417.2)">
            <path d="M89.923,1310.94C89.366,1309.58 89.058,1308.09 89.058,1306.52C89.058,1300.05 94.31,1294.8 100.778,1294.8C107.246,1294.8 112.498,1300.05 112.498,1306.52C112.498,1312.99 107.246,1318.24 100.778,1318.24C97.394,1318.24 94.343,1316.8 92.203,1314.51L82.276,1320.26C82.837,1321.62 83.146,1323.12 83.146,1324.69C83.146,1326.34 82.806,1327.91 82.191,1329.33L92.054,1335.04C94.2,1332.65 97.315,1331.15 100.778,1331.15C107.246,1331.15 112.498,1336.4 112.498,1342.87C112.498,1349.33 107.246,1354.59 100.778,1354.59C94.31,1354.59 89.058,1349.33 89.058,1342.87C89.058,1341.38 89.336,1339.95 89.843,1338.64L79.839,1332.85C77.708,1335.05 74.726,1336.41 71.426,1336.41C64.958,1336.41 59.707,1331.16 59.707,1324.69C59.707,1318.23 64.958,1312.97 71.426,1312.97C74.805,1312.97 77.852,1314.41 79.992,1316.7L89.923,1310.94Z" style="fill:white;"/>
        </g>
    </g>
</svg>
