<?xml version="1.0" encoding="UTF-8" standalone="no"?>
<!DOCTYPE svg PUBLIC "-//W3C//DTD SVG 1.1//EN" "http://www.w3.org/Graphics/SVG/1.1/DTD/svg11.dtd">
<svg width="100%" height="100%" viewBox="0 0 476 412" version="1.1" xmlns="http://www.w3.org/2000/svg" xmlns:xlink="http://www.w3.org/1999/xlink" xml:space="preserve" style="fill-rule:evenodd;clip-rule:evenodd;stroke-linejoin:round;stroke-miterlimit:1.41421;">
    <g transform="matrix(1,0,0,1,-12,-44)">
        <g id="Shop-Icon" transform="matrix(5.78036,0,0,5.13321,-5939.53,-3019.37)">
            <path d="M1051.21,654.361C1056.89,654.361 1061.24,659.971 1061.24,665.649C1061.24,671.328 1056.89,676.938 1051.21,676.938C1045.53,676.938 1041.19,671.328 1041.19,665.649C1041.19,659.971 1045.53,654.361 1051.21,654.361ZM1081.75,654.361C1087.43,654.361 1091.78,659.971 1091.78,665.649C1091.78,671.328 1087.43,676.938 1081.75,676.938C1076.08,676.938 1071.73,671.328 1071.73,665.649C1071.73,659.971 1076.08,654.361 1081.75,654.361ZM1042.26,617.349L1048.97,637.858L1082.01,637.858L1091.94,600.804C1092.27,599.555 1093.03,598.531 1094.01,597.845C1094.87,597.234 1095.92,596.874 1097.06,596.874L1106.53,596.874C1109.44,596.874 1111.8,599.236 1111.8,602.144C1111.8,605.053 1109.44,607.414 1106.53,607.414L1101.08,607.414L1091.18,644.344C1091.06,644.799 1090.88,645.223 1090.66,645.612C1089.77,647.27 1088.02,648.398 1086.01,648.399L1045.18,648.399C1044.01,648.399 1042.94,648.021 1042.07,647.381C1041.19,646.751 1040.49,645.846 1040.13,644.74L1030.03,613.874C1029.73,612.948 1029.7,611.998 1029.89,611.11C1030.35,608.664 1032.5,606.809 1035.08,606.809L1078.07,606.807C1080.98,606.808 1083.34,609.166 1083.34,612.072C1083.34,614.978 1080.98,617.337 1078.07,617.337L1042.26,617.349Z" style="fill:white;"/>
        </g>
    </g>
</svg>
