<?xml version="1.0" encoding="UTF-8" standalone="no"?>
<!DOCTYPE svg PUBLIC "-//W3C//DTD SVG 1.1//EN" "http://www.w3.org/Graphics/SVG/1.1/DTD/svg11.dtd">
<svg width="100%" height="100%" viewBox="0 0 468 354" version="1.1" xmlns="http://www.w3.org/2000/svg" xmlns:xlink="http://www.w3.org/1999/xlink" xml:space="preserve" style="fill-rule:evenodd;clip-rule:evenodd;stroke-linejoin:round;stroke-miterlimit:1.41421;">
    <g transform="matrix(1,0,0,1,-11,-69)">
        <g id="Sound-Icon" transform="matrix(5.68093,0,0,5.68093,-6211.05,-3251.92)">
            <g id="Volume-Medium-Icon" transform="matrix(2.62572,0,0,2.59464,-238.335,-8460.33)">
                <path d="M524.41,3509.95C523.659,3509.84 522.983,3509.51 522.465,3509L522.41,3509L516.41,3503L510.957,3503C509.3,3503 507.956,3501.66 507.956,3500L507.956,3496C507.956,3494.34 509.3,3493 510.957,3493L516.41,3493L522.41,3487L522.465,3487C522.983,3486.49 523.659,3486.16 524.41,3486.05L524.41,3486C524.41,3486 525.409,3486 526.027,3486C526.289,3486 526.502,3486.22 526.502,3486.48C526.502,3489.56 526.502,3506.44 526.502,3509.52C526.502,3509.78 526.289,3510 526.027,3510C525.409,3510 524.41,3510 524.41,3510L524.41,3509.95Z" style="fill:white;"/>
            </g>
            <g id="Volume-Medium-Icon1" transform="matrix(3.04323,0,0,3.00721,-456.603,-9902.18)">
                <path d="M533.049,3506.88C533.004,3506.92 532.934,3506.92 532.891,3506.88C532.648,3506.64 531.901,3505.89 531.643,3505.63C531.62,3505.61 531.607,3505.58 531.608,3505.54C531.609,3505.51 531.624,3505.48 531.648,3505.46C533.701,3503.63 535,3500.97 535,3498C535,3495.03 533.701,3492.37 531.648,3490.54C531.624,3490.52 531.61,3490.49 531.609,3490.46C531.608,3490.43 531.62,3490.39 531.643,3490.37C531.901,3490.11 532.648,3489.37 532.891,3489.12C532.934,3489.08 533.004,3489.08 533.05,3489.12C535.471,3491.31 537,3494.47 537,3498C537,3501.53 535.471,3504.69 533.049,3506.88ZM530.221,3504.06C530.175,3504.1 530.107,3504.1 530.065,3504.05C529.824,3503.81 529.073,3503.06 528.809,3502.8C528.786,3502.77 528.774,3502.74 528.775,3502.71C528.777,3502.68 528.792,3502.64 528.818,3502.62C530.149,3501.52 531,3499.86 531,3498C531,3496.14 530.149,3494.48 528.818,3493.38C528.793,3493.36 528.777,3493.33 528.775,3493.29C528.774,3493.26 528.786,3493.23 528.81,3493.2C529.073,3492.94 529.824,3492.19 530.065,3491.95C530.107,3491.91 530.175,3491.9 530.221,3491.94C531.922,3493.41 533,3495.58 533,3498C533,3500.42 531.922,3502.59 530.221,3504.06Z" style="fill:white;"/>
            </g>
        </g>
    </g>
</svg>
