<?xml version="1.0" encoding="UTF-8" standalone="no"?>
<!DOCTYPE svg PUBLIC "-//W3C//DTD SVG 1.1//EN" "http://www.w3.org/Graphics/SVG/1.1/DTD/svg11.dtd">
<svg width="100%" height="100%" viewBox="0 0 475 354" version="1.1" xmlns="http://www.w3.org/2000/svg" xmlns:xlink="http://www.w3.org/1999/xlink" xml:space="preserve" style="fill-rule:evenodd;clip-rule:evenodd;stroke-linejoin:round;stroke-miterlimit:1.41421;">
    <g transform="matrix(1,0,0,1,-11,-69)">
        <g id="Sound-Off-Icon" transform="matrix(5.68093,0,0,5.68093,-5533.88,-2791.39)">
            <g id="Volume-Medium-Icon" transform="matrix(2.62572,0,0,2.59464,-357.536,-8541.39)">
                <path d="M524.41,3509.95C523.659,3509.84 522.983,3509.51 522.465,3509L522.41,3509L516.41,3503L510.957,3503C509.3,3503 507.956,3501.66 507.956,3500L507.956,3496C507.956,3494.34 509.3,3493 510.957,3493L516.41,3493L522.41,3487L522.465,3487C522.983,3486.49 523.659,3486.16 524.41,3486.05L524.41,3486C524.41,3486 525.409,3486 526.027,3486C526.289,3486 526.502,3486.22 526.502,3486.48C526.502,3489.56 526.502,3506.44 526.502,3509.52C526.502,3509.78 526.289,3510 526.027,3510C525.409,3510 524.41,3510 524.41,3510L524.41,3509.95Z" style="fill:white;"/>
            </g>
            <g transform="matrix(0.948473,0,0,0.948473,974.351,500.37)">
                <g transform="matrix(0.801558,0.94955,-0.998616,0.842977,36.5589,-54.9724)">
                    <path d="M91.852,21.564C91.852,21.3 91.627,21.086 91.349,21.086L60.976,21.086C60.698,21.086 60.473,21.3 60.473,21.564L60.473,24.433C60.473,24.697 60.698,24.912 60.976,24.912L91.349,24.912C91.627,24.912 91.852,24.697 91.852,24.433L91.852,21.564Z" style="fill:white;"/>
                </g>
                <g transform="matrix(-0.801558,0.94955,0.998616,0.842977,113.62,-54.9724)">
                    <path d="M91.852,21.564C91.852,21.3 91.627,21.086 91.349,21.086L60.976,21.086C60.698,21.086 60.473,21.3 60.473,21.564L60.473,24.433C60.473,24.697 60.698,24.912 60.976,24.912L91.349,24.912C91.627,24.912 91.852,24.697 91.852,24.433L91.852,21.564Z" style="fill:white;"/>
                </g>
            </g>
        </g>
    </g>
</svg>
