<?xml version="1.0" encoding="UTF-8" standalone="no"?>
<!DOCTYPE svg PUBLIC "-//W3C//DTD SVG 1.1//EN" "http://www.w3.org/Graphics/SVG/1.1/DTD/svg11.dtd">
<svg width="100%" height="100%" viewBox="0 0 416 476" version="1.1" xmlns="http://www.w3.org/2000/svg" xmlns:xlink="http://www.w3.org/1999/xlink" xml:space="preserve" style="fill-rule:evenodd;clip-rule:evenodd;stroke-linejoin:round;stroke-miterlimit:1.41421;">
    <g transform="matrix(1,0,0,1,-42,-12)">
        <g id="Time-Icon" transform="matrix(0.978319,0,0,0.978319,148.991,492.108)">
            <g transform="matrix(4.54139,0,0,4.54139,-6079.9,1588.11)">
                <path d="M1377.27,-457.754C1378.66,-457.754 1379.79,-456.626 1379.79,-455.237L1379.79,-450.203C1379.79,-448.814 1378.66,-447.686 1377.27,-447.686L1365.89,-447.686L1365.89,-442.778C1365.89,-442.607 1365.87,-442.441 1365.83,-442.282C1388.8,-440.102 1406.79,-420.737 1406.79,-397.203C1406.79,-372.21 1386.5,-351.92 1361.51,-351.92C1336.52,-351.92 1316.23,-372.21 1316.23,-397.203C1316.23,-420.737 1334.22,-440.102 1357.19,-442.282C1357.15,-442.441 1357.13,-442.607 1357.13,-442.778L1357.13,-447.686L1345.75,-447.686C1344.36,-447.686 1343.23,-448.814 1343.23,-450.203L1343.23,-455.237C1343.23,-456.626 1344.36,-457.754 1345.75,-457.754L1377.27,-457.754ZM1361.51,-434.335C1382,-434.335 1398.64,-417.696 1398.64,-397.203C1398.64,-376.709 1382,-360.071 1361.51,-360.071C1341.02,-360.071 1324.38,-376.709 1324.38,-397.203C1324.38,-417.696 1341.02,-434.335 1361.51,-434.335ZM1383.64,-392.049L1361.18,-392.049C1359.98,-392.049 1358.89,-392.535 1358.1,-393.321L1358.1,-393.325C1358.1,-393.325 1358.1,-393.329 1358.1,-393.329C1357.31,-394.116 1356.82,-395.203 1356.82,-396.402L1356.82,-418.866C1356.82,-421.268 1358.77,-423.219 1361.18,-423.219C1363.58,-423.219 1365.53,-421.268 1365.53,-418.866L1365.53,-400.755L1383.64,-400.755C1386.04,-400.755 1387.99,-398.804 1387.99,-396.402C1387.99,-394 1386.04,-392.049 1383.64,-392.049Z" style="fill:white;"/>
            </g>
            <g transform="matrix(4.79834,0,0,4.79834,-6487.88,-2328.91)">
                <path d="M1373.62,395.935C1398.06,395.935 1417.9,415.773 1417.9,440.207C1417.9,464.642 1398.06,484.479 1373.62,484.479C1349.19,484.479 1329.35,464.642 1329.35,440.207C1329.35,415.773 1349.19,395.935 1373.62,395.935ZM1373.62,406.627C1392.16,406.627 1407.2,421.674 1407.2,440.207C1407.2,458.741 1392.16,473.787 1373.62,473.787C1355.09,473.787 1340.04,458.741 1340.04,440.207C1340.04,421.674 1355.09,406.627 1373.62,406.627Z" style="fill:white;"/>
            </g>
        </g>
    </g>
</svg>
