<?xml version="1.0" encoding="UTF-8" standalone="no"?>
<!DOCTYPE svg PUBLIC "-//W3C//DTD SVG 1.1//EN" "http://www.w3.org/Graphics/SVG/1.1/DTD/svg11.dtd">
<svg width="100%" height="100%" viewBox="0 0 471 471" version="1.1" xmlns="http://www.w3.org/2000/svg" xmlns:xlink="http://www.w3.org/1999/xlink" xml:space="preserve" style="fill-rule:evenodd;clip-rule:evenodd;stroke-linejoin:round;stroke-miterlimit:1.41421;">
    <g transform="matrix(1,0,0,1,-11,-18)">
        <g id="Video-Icon" transform="matrix(4.9575,0,0,4.9575,-4936.61,-1653.02)">
            <path d="M1078.75,432.034L1012.29,432.034C1004.43,432.034 998.048,425.653 998.048,417.793L998.048,351.335C998.048,343.475 1004.43,337.094 1012.29,337.094L1078.75,337.094C1086.61,337.094 1092.99,343.475 1092.99,351.335L1092.99,417.793C1092.99,425.652 1086.61,432.033 1078.75,432.034ZM1065.28,390.803C1067.48,389.494 1068.83,387.123 1068.83,384.564C1068.83,382.004 1067.48,379.634 1065.28,378.324C1058.04,374.012 1048.43,368.287 1041.08,363.912C1038.84,362.575 1036.05,362.547 1033.78,363.838C1031.51,365.128 1030.1,367.539 1030.1,370.152C1030.1,378.839 1030.1,390.288 1030.1,398.976C1030.1,401.588 1031.51,403.999 1033.78,405.29C1036.05,406.581 1038.84,406.552 1041.08,405.216C1048.43,400.84 1058.04,395.116 1065.28,390.803Z" style="fill:white;"/>
        </g>
    </g>
</svg>
